<svg id="Camada_1" data-name="Camada 1" xmlns="http://www.w3.org/2000/svg" viewBox="0 0 294.62 186.03"><defs><style>.cls-1{opacity:0.3;}.cls-2{fill:#cecece;}.cls-3{fill:#f1ece6;}.cls-4{fill:#c44030;}.cls-5{fill:#881c14;}.cls-6{fill:#a8281f;}.cls-7{fill:#f75c52;}.cls-8{fill:#e3deda;}.cls-9{fill:#b2aca4;}.cls-10{fill:#d5cec4;}.cls-11{fill:#a09992;}.cls-12{fill:#675750;}.cls-13{fill:#3f3530;}.cls-14{fill:#544540;}.cls-15{fill:#826e69;}.cls-16{isolation:isolate;}.cls-17{fill:#151b1f;}.cls-18{fill:#0d1114;}.cls-19{fill:#0d1116;}.cls-20{fill:#88888a;}.cls-21{fill:#88898a;}.cls-22{fill:#006c70;}.cls-23{fill:#057378;}.cls-24{fill:#929394;}.cls-25{fill:#919193;}.cls-26{fill:#6d6d6f;}.cls-27{fill:#898a8b;}.cls-28{fill:#b8b9ba;}.cls-29{fill:#89898a;}.cls-30{fill:#6e6e6e;}.cls-31{fill:#97b2ca;}.cls-32{fill:#055e63;}.cls-33{fill:#696967;}.cls-34{fill:#f8f9fb;}.cls-35{fill:#148f94;}.cls-36{fill:#89898b;}.cls-37{fill:#686867;}.cls-38{fill:#e2e2e2;}.cls-39{fill:#54c2f2;}.cls-40{fill:#b7b8ba;}.cls-41{fill:#f6f7fa;}.cls-42{fill:#115c79;}.cls-43{fill:#053141;}.cls-44{fill:#cedbe5;}.cls-45{fill:#a6bbcd;}.cls-46{fill:#86a0b8;}.cls-47{fill:#bfcdda;}.cls-48{fill:#fff;}.cls-49{fill:#ecf0f2;}.cls-50{fill:#a4baca;}</style></defs><polygon class="cls-1" points="136.17 12.63 122.38 12.63 0 83.29 0 91.25 72.29 132.99 86.08 132.99 208.45 62.33 208.45 54.37 136.17 12.63"/><polygon class="cls-2" points="0 86.69 0 88.38 72.29 130.11 86.08 130.11 208.45 59.46 208.45 57.77 0 86.69"/><polygon class="cls-3" points="4.9 81.55 0 86.69 72.29 128.42 86.08 128.42 208.45 57.77 208.45 49.81 136.17 8.07 127.27 10.9 4.9 81.55"/><polygon class="cls-1" points="88.66 63.31 0 86.69 96.9 70.11 106.65 64.48 136.17 8.07 100.93 55.77 88.66 63.31"/><polygon class="cls-3" points="0 78.73 0 86.69 95.11 68.61 104.86 62.98 136.17 8.07 122.38 8.07 0 78.73"/><polygon class="cls-4" points="94 79.62 81.89 72.63 81.89 67.89 95.95 71.95 94 79.62"/><polygon class="cls-5" points="111.11 79.62 123.21 72.63 123.21 67.89 109.39 72.43 111.11 79.62"/><polygon class="cls-6" points="111.11 79.62 94 79.62 94 74.89 102.05 71.95 111.11 74.89 111.11 79.62"/><path class="cls-7" d="M145.62,148.56l-12.1-7H116.41l-12.1,7v9.87l12.11,7h17.11l12.1-7Z" transform="translate(-22.41 -90.54)"/><path class="cls-4" d="M132.71,143.84H117.22l-11,6.32V158l11,6.33h15.48L143.66,158v-7.82Z" transform="translate(-22.41 -90.54)"/><polygon class="cls-5" points="121.25 58.49 121.25 59.63 110.3 53.31 94.81 53.31 83.86 59.63 83.86 58.49 94.81 52.17 110.3 52.17 121.25 58.49"/><polygon class="cls-8" points="140.5 51.19 142.59 42.63 133.57 33.98 118.73 30.35 106.75 33.86 104.65 42.42 113.66 51.06 128.51 54.69 140.5 51.19"/><rect class="cls-9" x="140.54" y="138.09" width="4.78" height="15.28" transform="translate(-54.99 159.41) rotate(-76.26)"/><polygon class="cls-10" points="112.53 55.7 103.51 47.08 104.65 42.42 113.66 51.06 112.53 55.7"/><polygon class="cls-11" points="127.37 59.33 139.36 55.85 140.5 51.19 128.51 54.69 127.37 59.33"/><polygon class="cls-12" points="112.59 54.1 103.2 45.13 104.39 40.28 114.88 48.75 112.59 54.1"/><polygon class="cls-13" points="128.05 57.89 140.53 54.26 141.72 49.41 127.22 50.66 128.05 57.89"/><rect class="cls-14" x="140.15" y="135.29" width="6.76" height="15.92" transform="translate(-52.14 158.07) rotate(-76.25)"/><polygon class="cls-15" points="141.72 49.41 143.9 40.49 134.51 31.48 119.05 27.7 106.57 31.36 104.39 40.28 113.77 49.27 129.23 53.05 141.72 49.41"/><polygon class="cls-8" points="130.16 41.92 130.86 39.04 127.83 36.14 122.84 34.92 118.8 36.09 118.1 38.98 121.14 41.88 126.12 43.1 130.16 41.92"/><rect class="cls-9" x="145.04" y="131.24" width="1.61" height="5.14" transform="translate(-41.19 153.14) rotate(-76.25)"/><polygon class="cls-10" points="120.75 43.44 117.72 40.54 118.1 38.98 121.14 41.88 120.75 43.44"/><polygon class="cls-11" points="125.74 44.66 129.77 43.49 130.16 41.92 126.12 43.1 125.74 44.66"/><polygon class="cls-12" points="122.02 40.87 119.73 38.68 120.22 36.68 124.08 38.13 122.02 40.87"/><polygon class="cls-13" points="125.8 41.79 128.85 40.91 129.34 38.91 125.71 38.42 125.8 41.79"/><polygon class="cls-15" points="129.34 38.91 129.87 36.73 127.58 34.53 123.8 33.61 120.76 34.5 120.22 36.68 122.52 38.87 126.29 39.79 129.34 38.91"/><rect class="cls-14" x="145.54" y="128.93" width="2.06" height="3.88" transform="translate(-37.68 151.77) rotate(-76.31)"/><polygon class="cls-8" points="131.14 37.89 131.85 35.01 128.81 32.1 123.82 30.89 119.79 32.06 119.09 34.94 122.12 37.84 127.11 39.07 131.14 37.89"/><rect class="cls-9" x="146.03" y="127.2" width="1.6" height="5.14" transform="translate(-36.48 151.09) rotate(-76.28)"/><polygon class="cls-10" points="121.74 39.41 118.71 36.51 119.09 34.94 122.12 37.84 121.74 39.41"/><polygon class="cls-11" points="126.73 40.62 130.76 39.46 131.14 37.89 127.11 39.07 126.73 40.62"/><polygon class="cls-12" points="138.91 17.45 141.24 9.79 137.92 2.06 129.5 0 122.08 4.5 120.02 12.93 122.82 17.54 121.77 25.9 119.15 30.29 118.33 33.63 121.85 36.99 127.67 38.11 132 36.59 131.97 34.01 131.89 28.72 135.2 19.73 138.91 17.45"/><polygon class="cls-13" points="140.36 17.91 142.42 9.48 137.92 2.06 139.28 8.66 137.35 16.26 132.14 20.45 126.33 20.64 131.53 22.06 129.69 27.84 129.88 34.27 129.32 36.59 127.83 37.28 121.85 36.99 127.63 38.41 132.3 37.05 133.12 33.7 132.82 28.61 135.75 20.71 140.36 17.91"/><polygon class="cls-15" points="130.11 2.51 127.66 2.56 125.1 4.11 123.92 6.26 124.81 7.74 127.27 7.69 129.83 6.13 131.01 3.98 130.11 2.51"/><g class="cls-16"><g class="cls-16"><g class="cls-16"><path class="cls-17" d="M186.68,157.94l0,8.79a8,8,0,0,1,7.22,0l0-8.79a8,8,0,0,0-7.22,0Z" transform="translate(-22.41 -90.54)"/></g></g><polygon class="cls-18" points="137.88 75.49 137.91 84.28 139.69 85.31 139.66 76.52 137.88 75.49"/><polygon class="cls-19" points="119.22 86.26 119.25 95.05 137.91 84.28 137.88 75.49 119.22 86.26"/><polygon class="cls-20" points="119.22 86.26 119.25 95.05 121.03 96.08 121 87.29 119.22 86.26"/><polygon class="cls-21" points="121 87.29 121.03 96.08 139.69 85.31 139.66 76.52 121 87.29"/><polygon class="cls-22" points="202.96 94.72 202.98 103.51 204.08 104.15 204.05 95.36 202.96 94.72"/><polygon class="cls-22" points="204.05 95.36 204.08 104.15 204.57 104.43 204.55 95.64 204.05 95.36"/><polygon class="cls-23" points="159.21 98.69 159.23 107.49 202.98 103.51 202.96 94.72 159.21 98.69"/><polygon class="cls-24" points="163.65 101.28 163.68 110.07 193.78 107.33 193.75 98.54 163.65 101.28"/><g class="cls-16"><g class="cls-16"><path class="cls-25" d="M190,194.23l0,8.79a3.17,3.17,0,0,1,3.26,0l0-8.79a3.16,3.16,0,0,0-3.27,0Z" transform="translate(-22.41 -90.54)"/></g></g><polygon class="cls-26" points="170.83 103.66 170.86 112.45 171.38 112.76 171.35 103.97 170.83 103.66"/><g class="cls-16"><g class="cls-16"><path class="cls-25" d="M193.76,194.5l0,8.79c.29.17.83.53.83,1l0-8.79c0-.46-.55-.82-.83-1Z" transform="translate(-22.41 -90.54)"/></g></g><polygon class="cls-27" points="170.78 106.25 170.8 115.04 171.45 114.67 171.42 105.87 170.78 106.25"/><polygon class="cls-26" points="173.91 105.67 173.93 114.47 174.99 115.08 174.96 106.29 173.91 105.67"/><g class="cls-16"><g class="cls-16"><path class="cls-28" d="M192.9,197.09l0,8.79c0-.09.09-.19.29-.31l0-8.79c-.2.12-.28.22-.28.31Z" transform="translate(-22.41 -90.54)"/></g></g><g class="cls-16"><g class="cls-16"><path class="cls-25" d="M192.9,197.09l0,8.79c0,.09.1.17.24.26l0-8.79c-.15-.09-.24-.17-.24-.26Z" transform="translate(-22.41 -90.54)"/></g></g><polygon class="cls-26" points="170.73 106.81 170.75 115.6 171 115.75 170.98 106.95 170.73 106.81"/><g class="cls-16"><g class="cls-16"><path class="cls-28" d="M193.83,196.41l0,8.79c.56-.32.75-.64.75-.91l0-8.8c0,.28-.2.59-.76.92Z" transform="translate(-22.41 -90.54)"/></g></g><g class="cls-16"><g class="cls-16"><path class="cls-25" d="M193.39,197.49l0,8.79a1,1,0,0,0,1.09-.12c.77-.44,1.54-.95,1.84-1.16l0-8.79c-.31.21-1.08.72-1.85,1.16a1,1,0,0,1-1.08.12Z" transform="translate(-22.41 -90.54)"/></g></g><g class="cls-16"><g class="cls-16"><path class="cls-28" d="M196.17,197.82l0,8.79a4.34,4.34,0,0,0,1.2-1l0-8.79a4.2,4.2,0,0,1-1.2,1Z" transform="translate(-22.41 -90.54)"/></g></g><polygon class="cls-29" points="169.59 104.52 169.62 113.31 169.82 113.43 169.8 104.64 169.59 104.52"/><polygon class="cls-26" points="166.85 103.28 166.88 112.07 167.59 112.49 167.56 103.7 166.85 103.28"/><polygon class="cls-30" points="166.07 103.73 166.09 112.53 166.88 112.07 166.85 103.28 166.07 103.73"/><polygon class="cls-29" points="166.07 103.73 166.09 112.53 166.82 112.95 166.79 104.16 166.07 103.73"/><g class="cls-16"><g class="cls-16"><path class="cls-25" d="M188,195.68l0,8.79a5.92,5.92,0,0,1,1.22-1l0-8.79a6.1,6.1,0,0,0-1.21,1Z" transform="translate(-22.41 -90.54)"/></g></g><g class="cls-16"><g class="cls-16"><path class="cls-28" d="M189,196.29l0,8.79c.47-.32,1.32-.86,1.73-1.1s.77-.39,1.22-.13l0-8.79c-.45-.26-.74-.15-1.22.13s-1.27.78-1.74,1.1Z" transform="translate(-22.41 -90.54)"/></g></g><polygon class="cls-30" points="169.03 105.67 169.06 114.46 169.74 114.07 169.71 105.28 169.03 105.67"/><g class="cls-16"><g class="cls-16"><path class="cls-25" d="M190.78,197l0,8.79c0-.26.18-.55.67-.83l0-8.79c-.48.28-.66.57-.66.83Z" transform="translate(-22.41 -90.54)"/></g></g><g class="cls-16"><g class="cls-16"><path class="cls-28" d="M190.78,197l0,8.79c0,.41.44.78.85,1l0-8.79c-.41-.24-.85-.61-.85-1Z" transform="translate(-22.41 -90.54)"/></g></g><polygon class="cls-26" points="173.76 107.28 173.79 116.07 174.47 116.47 174.44 107.68 173.76 107.28"/><polygon class="cls-29" points="169.22 107.51 169.24 116.3 169.58 116.5 169.56 107.71 169.22 107.51"/><polygon class="cls-27" points="173.65 108.14 173.67 116.93 174.47 116.47 174.44 107.68 173.65 108.14"/><polygon class="cls-29" points="172.98 107.75 173 116.54 173.67 116.93 173.65 108.14 172.98 107.75"/><g class="cls-16"><g class="cls-16"><path class="cls-28" d="M192.2,195.18l0,8.79c.17.1.26.19.26.28l0-8.79c0-.09-.09-.18-.27-.28Z" transform="translate(-22.41 -90.54)"/></g></g><g class="cls-16"><g class="cls-16"><path class="cls-25" d="M192.12,195.81l0,8.79c.24-.13.35-.24.35-.35l0-8.79c0,.11-.12.22-.35.35Z" transform="translate(-22.41 -90.54)"/></g></g><g class="cls-16"><g class="cls-16"><path class="cls-28" d="M192,198.25l0,8.79a3.22,3.22,0,0,0,3.42,0l0-8.79a3.24,3.24,0,0,1-3.42,0Z" transform="translate(-22.41 -90.54)"/></g></g><polygon class="cls-29" points="165.58 105.14 165.6 113.93 166.66 114.55 166.63 105.75 165.58 105.14"/><polygon class="cls-31" points="158.83 118.71 158.86 127.5 163.68 110.07 163.65 101.28 158.83 118.71"/><polygon class="cls-32" points="152.2 124.04 152.22 132.83 159.23 107.49 159.21 98.69 152.2 124.04"/><polygon class="cls-33" points="153.29 124.68 153.32 133.47 204.09 104.15 204.07 95.36 153.29 124.68"/><polygon class="cls-31" points="201.64 97.3 201.66 106.09 204.57 104.43 204.55 95.64 201.64 97.3"/><polygon class="cls-22" points="201.65 97.31 201.68 106.1 203.83 107.35 203.8 98.56 201.65 97.31"/><polygon class="cls-27" points="203.17 98.92 203.19 107.72 203.83 107.35 203.8 98.56 203.17 98.92"/><polygon class="cls-31" points="193.96 101.76 193.98 110.55 201.66 106.09 201.64 97.3 193.96 101.76"/><polygon class="cls-27" points="196.74 102.64 196.76 111.43 203.19 107.72 203.17 98.92 196.74 102.64"/><polygon class="cls-27" points="202.01 100.34 202.03 109.13 203 108.58 202.97 99.78 202.01 100.34"/><polygon class="cls-19" points="105.16 101.52 105.19 110.31 164.29 76.19 164.27 67.4 105.16 101.52"/><polygon class="cls-27" points="200.12 101.43 200.15 110.22 201.1 109.67 201.07 100.88 200.12 101.43"/><polygon class="cls-27" points="198.22 102.53 198.25 111.32 199.21 110.76 199.19 101.97 198.22 102.53"/><polygon class="cls-34" points="193.94 101.75 196.1 103 196.74 102.64 203.17 98.92 203.8 98.56 201.65 97.31 193.94 101.75"/><polygon class="cls-29" points="193.94 101.75 193.97 110.54 196.13 111.8 196.1 103 193.94 101.75"/><polygon class="cls-27" points="196.1 103 196.13 111.8 196.76 111.43 196.74 102.64 196.1 103"/><g class="cls-16"><g class="cls-16"><path class="cls-17" d="M126.08,194.15l0,8.79a2.53,2.53,0,0,1,1.49-2.09l0-8.79a2.54,2.54,0,0,0-1.49,2.09Z" transform="translate(-22.41 -90.54)"/></g></g><g class="cls-16"><g class="cls-16"><path class="cls-17" d="M111.83,190.1l0,8.79c0,1.88,1.23,3.76,3.68,5.18l0-8.79c-2.46-1.43-3.68-3.3-3.69-5.18Z" transform="translate(-22.41 -90.54)"/></g></g><polygon class="cls-31" points="189.21 104.48 189.23 113.27 193.98 110.55 193.96 101.76 189.21 104.48"/><g class="cls-16"><g class="cls-16"><path class="cls-35" d="M126.08,194.15l0,8.79a2.56,2.56,0,0,0,1.48,2.09l0-8.8a2.55,2.55,0,0,1-1.48-2.08Z" transform="translate(-22.41 -90.54)"/></g></g><polygon class="cls-22" points="189.22 104.49 189.24 113.28 191.39 114.53 191.37 105.74 189.22 104.49"/><polygon class="cls-27" points="190.73 106.11 190.76 114.89 191.39 114.53 191.37 105.74 190.73 106.11"/><polygon class="cls-31" points="181.53 108.93 181.56 117.72 189.23 113.27 189.21 104.48 181.53 108.93"/><polygon class="cls-27" points="184.32 109.81 184.34 118.6 190.76 114.89 190.73 106.11 184.32 109.81"/><polygon class="cls-27" points="189.59 107.51 189.61 116.3 190.56 115.75 190.54 106.96 189.59 107.51"/><path class="cls-34" d="M188.48,194.27l.72.42a6.1,6.1,0,0,0-1.21,1l1,.61c.47-.32,1.32-.86,1.74-1.1s.77-.39,1.22-.13l.2.12c.37.21.36.38-.08.63l-.68.39c-1.24.72-.48,1.46.19,1.85l.34.2a3.24,3.24,0,0,0,3.42,0l.67.39.79-.47-.68-.39a4.2,4.2,0,0,0,1.2-1l-1.05-.61c-.31.21-1.08.72-1.85,1.16a1,1,0,0,1-1.08.12l-.25-.14c-.29-.17-.37-.33,0-.57l.65-.37c1.5-.87.38-1.65-.07-1.91l-.52-.3a3.16,3.16,0,0,0-3.27,0l-.71-.41Z" transform="translate(-22.41 -90.54)"/><polygon class="cls-36" points="187.7 108.62 187.72 117.41 188.68 116.84 188.65 108.05 187.7 108.62"/><polygon class="cls-27" points="185.81 109.71 185.84 118.5 186.79 117.95 186.76 109.16 185.81 109.71"/><polygon class="cls-27" points="183.68 110.17 183.71 118.97 184.34 118.6 184.32 109.81 183.68 110.17"/><polygon class="cls-29" points="181.52 108.92 181.55 117.71 183.71 118.97 183.68 110.17 181.52 108.92"/><polygon class="cls-31" points="176.78 111.65 176.81 120.44 181.56 117.72 181.53 108.93 176.78 111.65"/><polygon class="cls-22" points="203.17 98.92 203.19 107.72 226.68 121.37 226.66 112.58 203.17 98.92"/><polygon class="cls-29" points="202.97 99.78 203 108.58 225.01 121.37 224.99 112.58 202.97 99.78"/><polygon class="cls-22" points="226.66 112.58 226.68 121.37 227.32 121 227.29 112.21 226.66 112.58"/><polygon class="cls-22" points="176.8 111.66 176.82 120.45 178.97 121.7 178.95 112.91 176.8 111.66"/><polygon class="cls-18" points="171.49 67.4 171.51 76.19 272.14 134.67 272.11 125.88 171.49 67.4"/><polygon class="cls-22" points="237.49 112.89 237.51 121.68 239.12 120.75 239.1 111.96 237.49 112.89"/><polygon class="cls-22" points="235.59 111.78 235.61 120.57 237.51 121.68 237.49 112.89 235.59 111.78"/><polygon class="cls-22" points="231.95 112.04 231.97 120.83 233.56 121.76 233.53 112.97 231.95 112.04"/><polygon class="cls-22" points="233.53 112.97 233.56 121.76 235.61 120.57 235.59 111.78 233.53 112.97"/><polygon class="cls-33" points="224.02 113.13 224.05 121.92 225.01 121.37 224.99 112.58 224.02 113.13"/><polygon class="cls-37" points="202.01 100.34 202.03 109.13 224.05 121.92 224.02 113.13 202.01 100.34"/><polygon class="cls-38" points="202.01 100.34 224.02 113.13 224.99 112.58 202.97 99.78 202.01 100.34"/><polygon class="cls-27" points="178.31 113.28 178.34 122.07 178.97 121.7 178.94 112.91 178.31 113.28"/><polygon class="cls-22" points="239.1 111.96 239.12 120.75 241.3 122.01 241.27 113.22 239.1 111.96"/><polygon class="cls-22" points="227.29 112.21 227.32 121 229.48 122.26 229.45 113.47 227.29 112.21"/><polygon class="cls-29" points="201.07 100.88 201.1 109.67 223.11 122.47 223.09 113.67 201.07 100.88"/><polygon class="cls-37" points="200.12 101.43 200.15 110.22 222.16 123.01 222.13 114.22 200.12 101.43"/><polygon class="cls-33" points="222.13 114.22 222.16 123.01 223.11 122.47 223.09 113.67 222.13 114.22"/><polygon class="cls-38" points="200.12 101.43 222.13 114.22 223.09 113.67 201.07 100.88 200.12 101.43"/><polygon class="cls-31" points="169.1 116.11 169.13 124.9 176.81 120.44 176.78 111.65 169.1 116.11"/><polygon class="cls-27" points="171.88 116.99 171.91 125.78 178.34 122.07 178.31 113.28 171.88 116.99"/><polygon class="cls-27" points="177.16 114.7 177.19 123.49 178.15 122.93 178.13 114.14 177.16 114.7"/><polygon class="cls-29" points="199.19 101.97 199.21 110.76 221.22 123.55 221.2 114.76 199.19 101.97"/><polygon class="cls-33" points="220.25 115.31 220.27 124.1 221.22 123.55 221.2 114.76 220.25 115.31"/><polygon class="cls-38" points="198.22 102.53 220.25 115.31 221.2 114.76 199.19 101.97 198.22 102.53"/><polygon class="cls-37" points="198.22 102.53 198.25 111.32 220.27 124.1 220.25 115.31 198.22 102.53"/><polygon class="cls-27" points="175.28 115.79 175.3 124.58 176.25 124.03 176.23 115.24 175.28 115.79"/><path class="cls-34" d="M249.07,203.11l-6.42,3.71-23.5-13.65,6.43-3.71Zm-2.64.56,1-.56-22-12.79-1,.56,22,12.79Zm-3.77,2.18,1-.55-22-12.79-1,.55,22,12.79Zm1.88-1.09,1-.55-22-12.79-.95.55,22,12.79Z" transform="translate(-22.41 -90.54)"/><polygon class="cls-29" points="196.74 102.64 196.76 111.43 220.27 125.07 220.24 116.28 196.74 102.64"/><polygon class="cls-27" points="220.24 116.28 220.27 125.07 226.68 121.37 226.66 112.58 220.24 116.28"/><polygon class="cls-22" points="219.59 116.66 219.62 125.45 220.27 125.07 220.24 116.28 219.59 116.66"/><polygon class="cls-27" points="173.39 116.88 173.42 125.67 174.37 125.12 174.34 116.33 173.39 116.88"/><polygon class="cls-29" points="169.09 116.1 169.11 124.89 171.27 126.15 171.25 117.35 169.09 116.1"/><polygon class="cls-27" points="171.25 117.35 171.27 126.15 171.91 125.78 171.88 116.99 171.25 117.35"/><polygon class="cls-34" points="219.59 116.66 221.76 117.91 229.45 113.47 227.29 112.21 226.66 112.58 220.24 116.28 219.59 116.66"/><polygon class="cls-29" points="219.59 116.66 219.62 125.45 221.78 126.7 221.76 117.91 219.59 116.66"/><polygon class="cls-27" points="221.76 117.91 221.78 126.7 229.48 122.26 229.45 113.47 221.76 117.91"/><polygon class="cls-31" points="164.36 118.83 164.39 127.62 169.13 124.9 169.1 116.11 164.36 118.83"/><polygon class="cls-22" points="190.73 106.11 190.76 114.89 214.25 128.55 214.22 119.76 190.73 106.11"/><polygon class="cls-29" points="190.54 106.96 190.56 115.75 212.57 128.55 212.55 119.76 190.54 106.96"/><polygon class="cls-22" points="214.22 119.76 214.25 128.55 214.9 128.17 214.87 119.38 214.22 119.76"/><polygon class="cls-22" points="164.38 118.83 164.4 127.62 166.55 128.87 166.53 120.08 164.38 118.83"/><polygon class="cls-33" points="211.6 120.31 211.62 129.09 212.57 128.55 212.55 119.76 211.6 120.31"/><polygon class="cls-37" points="189.59 107.51 189.61 116.3 211.62 129.09 211.6 120.31 189.59 107.51"/><polygon class="cls-38" points="189.59 107.51 211.6 120.31 212.55 119.76 190.54 106.96 189.59 107.51"/><polygon class="cls-27" points="165.88 120.45 165.9 129.25 166.55 128.87 166.53 120.08 165.88 120.45"/><polygon class="cls-22" points="214.87 119.38 214.9 128.17 217.06 129.43 217.03 120.64 214.87 119.38"/><polygon class="cls-29" points="188.65 108.05 188.68 116.84 210.69 129.64 210.66 120.84 188.65 108.05"/><polygon class="cls-37" points="187.7 108.62 187.72 117.41 209.74 130.19 209.71 121.39 187.7 108.62"/><polygon class="cls-33" points="209.71 121.39 209.74 130.19 210.69 129.64 210.66 120.84 209.71 121.39"/><polygon class="cls-38" points="188.65 108.05 187.7 108.62 209.71 121.39 210.66 120.84 188.65 108.05"/><polygon class="cls-27" points="159.46 124.16 159.49 132.95 165.9 129.25 165.88 120.45 159.46 124.16"/><polygon class="cls-27" points="164.74 121.87 164.77 130.66 165.72 130.11 165.69 121.32 164.74 121.87"/><polygon class="cls-29" points="186.76 109.16 186.79 117.95 208.8 130.72 208.78 121.93 186.76 109.16"/><polygon class="cls-37" points="185.81 109.71 185.84 118.5 207.84 131.28 207.81 122.49 185.81 109.71"/><polygon class="cls-33" points="207.81 122.49 207.84 131.28 208.8 130.72 208.78 121.93 207.81 122.49"/><polygon class="cls-27" points="162.84 122.97 162.87 131.76 163.83 131.2 163.81 122.41 162.84 122.97"/><polygon class="cls-27" points="207.81 123.46 207.83 132.25 214.25 128.55 214.22 119.76 207.81 123.46"/><polygon class="cls-29" points="184.32 109.81 184.34 118.6 207.83 132.25 207.81 123.46 184.32 109.81"/><polygon class="cls-22" points="207.17 123.83 207.2 132.62 207.83 132.25 207.81 123.46 207.17 123.83"/><polygon class="cls-27" points="160.96 124.06 160.98 132.85 161.94 132.29 161.92 123.5 160.96 124.06"/><polygon class="cls-29" points="156.66 123.27 156.69 132.06 158.85 133.32 158.83 124.53 156.66 123.27"/><polygon class="cls-31" points="153.77 124.95 153.8 133.75 156.7 132.07 156.68 123.28 153.77 124.95"/><polygon class="cls-27" points="158.83 124.53 158.85 133.32 159.49 132.95 159.46 124.16 158.83 124.53"/><polygon class="cls-37" points="152.2 124.04 152.22 132.83 153.32 133.47 153.29 124.68 152.2 124.04"/><polygon class="cls-31" points="153.29 124.68 153.32 133.47 153.8 133.75 153.77 124.95 153.29 124.68"/><polygon class="cls-29" points="207.17 123.83 207.2 132.62 209.36 133.87 209.34 125.08 207.17 123.83"/><polygon class="cls-27" points="209.34 125.08 209.36 133.87 217.06 129.43 217.03 120.64 209.34 125.08"/><polygon class="cls-34" points="207.17 123.83 209.34 125.08 217.03 120.64 214.87 119.38 214.22 119.76 207.81 123.46 207.17 123.83"/><polygon class="cls-22" points="178.31 113.28 178.34 122.07 201.83 135.72 201.8 126.93 178.31 113.28"/><polygon class="cls-29" points="178.13 114.14 178.15 122.93 200.15 135.72 200.13 126.93 178.13 114.14"/><polygon class="cls-22" points="201.8 126.93 201.83 135.72 202.46 135.35 202.44 126.56 201.8 126.93"/><polygon class="cls-37" points="177.16 114.7 177.19 123.49 199.19 136.28 199.16 127.48 177.16 114.7"/><polygon class="cls-33" points="199.16 127.48 199.19 136.28 200.15 135.72 200.13 126.93 199.16 127.48"/><polygon class="cls-22" points="202.44 126.56 202.46 135.35 204.62 136.61 204.6 127.82 202.44 126.56"/><polygon class="cls-29" points="176.23 115.24 176.25 124.03 198.27 136.81 198.24 128.02 176.23 115.24"/><g class="cls-16"><g class="cls-16"><path class="cls-17" d="M294.52,216.41l0,8.79a2.53,2.53,0,0,1,1.47,2.08l0-8.79a2.53,2.53,0,0,0-1.47-2.08Z" transform="translate(-22.41 -90.54)"/></g></g><polygon class="cls-33" points="197.28 128.57 197.3 137.36 198.27 136.81 198.24 128.02 197.28 128.57"/><polygon class="cls-37" points="175.28 115.79 175.3 124.58 197.3 137.36 197.28 128.57 175.28 115.79"/><polygon class="cls-38" points="175.28 115.79 197.28 128.57 198.24 128.02 176.23 115.24 175.28 115.79"/><polygon class="cls-29" points="174.34 116.33 174.37 125.12 196.37 137.91 196.34 129.11 174.34 116.33"/><polygon class="cls-33" points="195.39 129.66 195.42 138.45 196.37 137.91 196.34 129.11 195.39 129.66"/><polygon class="cls-37" points="173.39 116.88 173.42 125.67 195.42 138.45 195.39 129.66 173.39 116.88"/><g class="cls-16"><g class="cls-16"><path class="cls-35" d="M294.5,220.6l0,8.79a2.56,2.56,0,0,0,1.5-2.11l0-8.79a2.54,2.54,0,0,1-1.49,2.11Z" transform="translate(-22.41 -90.54)"/></g></g><polygon class="cls-27" points="195.39 130.63 195.41 139.42 201.83 135.72 201.8 126.93 195.39 130.63"/><path class="cls-34" d="M224.21,217.46l-6.41,3.71-23.51-13.65,6.43-3.71Zm-4.52,1.65,1-.56-22-12.77-.95.54,22,12.79Zm1.88-1.09,1-.56-22-12.78-1,.55,22,12.79Zm-3.77,2.18.95-.55-22-12.79-.95.55,22,12.79Z" transform="translate(-22.41 -90.54)"/><polygon class="cls-29" points="171.88 116.99 171.91 125.78 195.41 139.42 195.39 130.63 171.88 116.99"/><polygon class="cls-22" points="194.74 131.01 194.76 139.8 195.41 139.42 195.39 130.63 194.74 131.01"/><polygon class="cls-27" points="196.91 132.25 196.94 141.04 204.62 136.61 204.6 127.82 196.91 132.25"/><polygon class="cls-36" points="194.74 131.01 194.76 139.8 196.94 141.04 196.91 132.25 194.74 131.01"/><polygon class="cls-22" points="189.38 134.1 189.41 142.89 190.04 142.52 190.01 133.73 189.38 134.1"/><polygon class="cls-22" points="165.88 120.45 165.9 129.25 189.41 142.89 189.38 134.1 165.88 120.45"/><polygon class="cls-29" points="165.69 121.32 165.72 130.11 187.72 142.9 187.69 134.11 165.69 121.32"/><polygon class="cls-37" points="164.74 121.87 164.77 130.66 186.77 143.45 186.74 134.66 164.74 121.87"/><polygon class="cls-38" points="164.74 121.87 186.74 134.66 187.69 134.11 165.69 121.32 164.74 121.87"/><polygon class="cls-33" points="186.74 134.66 186.77 143.45 187.72 142.9 187.69 134.11 186.74 134.66"/><polygon class="cls-22" points="190.01 133.73 190.04 142.52 192.2 143.78 192.18 134.99 190.01 133.73"/><polygon class="cls-29" points="163.81 122.41 163.83 131.2 185.83 143.99 185.81 135.2 163.81 122.41"/><polygon class="cls-37" points="162.84 122.97 162.87 131.76 184.88 144.53 184.86 135.75 162.84 122.97"/><polygon class="cls-33" points="184.86 135.75 184.88 144.53 185.83 143.99 185.81 135.2 184.86 135.75"/><polygon class="cls-33" points="182.96 136.84 182.98 145.63 183.94 145.08 183.92 136.28 182.96 136.84"/><polygon class="cls-37" points="160.96 124.06 160.98 132.85 182.98 145.63 182.96 136.84 160.96 124.06"/><polygon class="cls-29" points="159.46 124.16 159.49 132.95 182.98 146.6 182.95 137.81 159.46 124.16"/><polygon class="cls-22" points="182.32 138.18 182.34 146.97 182.98 146.6 182.95 137.81 182.32 138.18"/><polygon class="cls-29" points="182.32 138.18 182.34 146.97 184.5 148.22 184.48 139.43 182.32 138.18"/><polygon class="cls-29" points="182.03 140.88 182.05 149.67 183.63 150.59 183.6 141.79 182.03 140.88"/><polygon class="cls-31" points="181.55 142.98 181.57 151.77 183.49 152.88 183.46 144.09 181.55 142.98"/><polygon class="cls-27" points="184.01 146.28 184.04 155.07 241.3 122.01 241.27 113.22 184.01 146.28"/><polygon class="cls-29" points="181.85 145.02 181.88 153.81 184.04 155.07 184.01 146.28 181.85 145.02"/><path class="cls-39" d="M186.68,157.94a8,8,0,0,1,7.22,0l100.62,58.47c2,1.15,2,3,0,4.19l-59.11,34.12a8,8,0,0,1-7.2,0L127.56,196.23c-2-1.14-2-3,0-4.17Zm39.78,27.95-1.09-.64-43.76,4-7,25.35,1.09.63.48.28,2.91-1.68,2.15,1.25.63-.36,23.49,13.65-.63.36,2.16,1.26,7.7-4.45-2.17-1.25-.63.36L188.29,211l.64-.37-2.14-1.25,4.72-2.73,2.15,1.25.63-.37,23.51,13.65-.65.37,2.17,1.25,7.69-4.44-2.16-1.25-.64.36-23.49-13.65.63-.36-2.14-1.25,4.73-2.74,2.15,1.25.64-.37L230.22,214l-.64.36,2.16,1.26,7.7-4.45-2.16-1.25-.65.37-23.49-13.65.64-.37L211.63,195l4.74-2.74,2.14,1.25.64-.37,23.5,13.65-.65.37,2.17,1.26,7.69-4.45-2.16-1.25-.63.36-23.49-13.65.63-.37-2.15-1.24,2.89-1.67-.49-.29Zm-20,50.92,57.26-33.05-2.17-1.27-1.61.93-1.91-1.1-2.05,1.18-1.58-.92-49.92,28.84,1.57.91-2,1.19,1.91,1.11-1.61.93,2.16,1.25Z" transform="translate(-22.41 -90.54)"/><polygon class="cls-34" points="169.09 116.1 171.25 117.35 171.88 116.99 178.31 113.28 178.94 112.91 176.8 111.66 169.09 116.1"/><polygon class="cls-38" points="177.16 114.7 199.16 127.48 200.13 126.93 178.13 114.14 177.16 114.7"/><polygon class="cls-34" points="182.32 138.18 184.48 139.43 192.18 134.99 190.01 133.73 189.38 134.1 182.95 137.81 182.32 138.18"/><polygon class="cls-22" points="212.99 164.18 213.01 172.97 272.12 138.85 272.09 130.06 212.99 164.18"/><g class="cls-16"><g class="cls-16"><path class="cls-17" d="M272.5,237.9l0,8.79a4.34,4.34,0,0,1,3.94,0l0-8.79a4.34,4.34,0,0,0-3.94,0Z" transform="translate(-22.41 -90.54)"/></g></g><polygon class="cls-19" points="242.94 151.49 242.96 160.28 250.11 156.15 250.09 147.36 242.94 151.49"/><polygon class="cls-18" points="254.03 147.35 254.05 156.14 261.17 160.28 261.14 151.49 254.03 147.35"/><g class="cls-16"><g class="cls-16"><path class="cls-17" d="M264.52,243.18l0,8.79a1.42,1.42,0,0,1,.83-1.16l0-8.79a1.4,1.4,0,0,0-.83,1.16Z" transform="translate(-22.41 -90.54)"/></g></g><g class="cls-16"><g class="cls-16"><path class="cls-17" d="M283.55,242l0,8.79a1.36,1.36,0,0,1,.8,1.13l0-8.79a1.38,1.38,0,0,0-.8-1.13Z" transform="translate(-22.41 -90.54)"/></g></g><g class="cls-16"><g class="cls-16"><path class="cls-40" d="M264.52,243.18l0,8.79a1.38,1.38,0,0,0,.81,1.13l0-8.8a1.37,1.37,0,0,1-.8-1.12Z" transform="translate(-22.41 -90.54)"/></g></g><g class="cls-16"><g class="cls-16"><path class="cls-40" d="M283.52,244.3l0,8.8a1.38,1.38,0,0,0,.82-1.16l0-8.79a1.39,1.39,0,0,1-.83,1.15Z" transform="translate(-22.41 -90.54)"/></g></g><polygon class="cls-20" points="242.91 153.77 242.94 162.56 250.05 166.69 250.03 157.9 242.91 153.77"/><polygon class="cls-21" points="253.97 157.9 253.99 166.69 261.14 162.56 261.11 153.77 253.97 157.9"/><path class="cls-41" d="M265.35,242c-1.1.64-1.11,1.66,0,2.28l7.12,4.14a4.31,4.31,0,0,0,3.94,0l7.14-4.13a1.21,1.21,0,0,0,0-2.28l-7.11-4.13a4.34,4.34,0,0,0-3.94,0Z" transform="translate(-22.41 -90.54)"/><g class="cls-16"><g class="cls-16"><path class="cls-40" d="M272.44,248.44l0,8.79a4.31,4.31,0,0,0,3.94,0l0-8.79a4.31,4.31,0,0,1-3.94,0Z" transform="translate(-22.41 -90.54)"/></g></g><polygon class="cls-22" points="105.15 105.7 105.18 114.49 205.81 172.97 205.78 164.18 105.15 105.7"/><g class="cls-16"><g class="cls-16"><path class="cls-35" d="M228.19,254.71l0,8.79a8,8,0,0,0,7.21,0l0-8.79a8,8,0,0,1-7.2,0Z" transform="translate(-22.41 -90.54)"/></g></g><path class="cls-42" d="M174.27,151c5-2.87,13.07-2.87,18,0l121,70.34c4.94,2.87,4.93,7.57,0,10.44l-58.69,33.89c-5,2.86-13.09,2.86-18,0l-121-70.34c-4.94-2.87-4.9-7.57.06-10.43Zm53.92,103.75a8,8,0,0,0,7.2,0L294.5,220.6c2-1.15,2-3,0-4.19L193.9,157.94a8,8,0,0,0-7.22,0l-59.11,34.12c-2,1.15-2,3,0,4.17l100.63,58.48Zm44.25-6.27a4.31,4.31,0,0,0,3.94,0l7.14-4.13a1.21,1.21,0,0,0,0-2.28l-7.11-4.13a4.34,4.34,0,0,0-3.94,0L265.35,242c-1.1.64-1.11,1.66,0,2.28l7.12,4.14ZM160.29,166l-18.66,10.77,1.78,1,18.66-10.77-1.78-1Z" transform="translate(-22.41 -90.54)"/><polygon class="cls-41" points="119.22 86.26 121 87.29 139.66 76.52 137.88 75.49 119.22 86.26"/><polygon class="cls-34" points="181.52 108.92 183.68 110.17 184.32 109.81 190.73 106.11 191.37 105.74 189.22 104.49 181.52 108.92"/><path class="cls-34" d="M236.63,210.29,230.22,214l-23.49-13.66,6.41-3.7Zm-4.51,1.64.95-.55-22-12.79-.95.56,22,12.78Zm-1.9,1.1,1-.56-22-12.78-.95.55,22,12.79Zm3.79-2.19,1-.55L213,197.5l-.95.55,22,12.79Z" transform="translate(-22.41 -90.54)"/><polygon class="cls-38" points="185.81 109.71 207.81 122.49 208.78 121.93 186.76 109.16 185.81 109.71"/><polygon class="cls-38" points="173.39 116.88 195.39 129.66 196.34 129.11 174.34 116.33 173.39 116.88"/><polygon class="cls-34" points="194.74 131.01 196.91 132.25 204.6 127.82 202.44 126.56 201.8 126.93 195.39 130.63 194.74 131.01"/><path class="cls-43" d="M236.56,265.62c4.93,2.87,13.06,2.87,18,0l58.69-33.89c2.5-1.44,3.74-3.34,3.74-5.25l0,8.8c0,1.9-1.24,3.8-3.74,5.24L254.6,274.42c-4.95,2.86-13.08,2.86-18,0l-121-70.34,0-8.79Z" transform="translate(-22.41 -90.54)"/><polygon class="cls-39" points="145.62 123.55 183.49 148.22 244.6 115.29 230.76 104.75 192.01 84.16 168.12 87.29 151.7 97.3 145.62 123.55"/></g><polygon class="cls-44" points="232.05 107.18 192.23 110.95 193.96 85.19 232.05 107.18"/><polygon class="cls-45" points="192.23 110.95 190.49 111.11 193.96 85.19 192.23 110.95"/><polygon class="cls-45" points="232.05 107.18 192.19 111.49 192.23 110.95 232.05 107.18"/><polygon class="cls-46" points="192.19 111.49 190.41 111.68 190.49 111.11 192.23 110.95 192.19 111.49"/><polygon class="cls-47" points="192.19 111.49 191.89 115.98 184.14 116.17 184.46 115.14 189.99 114.88 190.41 111.68 192.19 111.49"/><polygon class="cls-46" points="184.46 115.14 184.14 116.17 183.2 116.19 183.48 115.19 184.46 115.14"/><polygon class="cls-45" points="183.48 115.19 183.2 116.19 138.73 117.28 183.48 115.19"/><polygon class="cls-48" points="193.96 85.19 190.49 111.11 190.41 111.68 189.99 114.88 184.46 115.14 183.48 115.19 138.73 117.28 193.96 85.19"/><polygon class="cls-45" points="183.2 116.19 184.14 116.17 176.82 139.28 183.2 116.19"/><polygon class="cls-49" points="232.05 107.18 176.82 139.28 184.14 116.17 191.89 115.98 192.19 111.49 232.05 107.18"/><polygon class="cls-50" points="232.05 107.18 232.04 110.58 176.81 142.68 176.82 139.28 232.05 107.18"/><polygon class="cls-50" points="176.82 139.28 176.81 142.68 138.72 120.69 138.73 117.28 176.82 139.28"/><polygon class="cls-44" points="138.73 117.28 183.2 116.19 176.82 139.28 138.73 117.28"/></svg>