<svg id="Camada_1" data-name="Camada 1" xmlns="http://www.w3.org/2000/svg" viewBox="0 0 322.95 354.56"><defs><style>.cls-1{fill:#bbccd3;}.cls-2{fill:#e8f3f7;}.cls-3{fill:#dfe9ed;}.cls-4{fill:#9da9ad;}.cls-5{fill:#8b9999;}.cls-6{fill:#fc6d5f;}.cls-7{fill:#a4b5ba;}.cls-8{fill:#b2c4ca;}.cls-9{fill:#b2b2af;}.cls-10{fill:#c82c23;}.cls-11{fill:#cbd7db;}.cls-12{fill:#f9faff;}.cls-13{fill:#878e91;}.cls-14{fill:#fc4a39;}.cls-15{fill:#cbdfe5;}.cls-16{fill:#95a4a8;}</style></defs><polygon class="cls-1" points="306.66 218.85 306.68 225.3 322.92 227.52 290.35 208.66 290.36 209.29 306.66 218.85"/><polygon class="cls-1" points="6.59 269.74 6.59 270.28 0 273.83 0 274.08 120.93 344.12 116.12 334 6.59 269.74"/><polygon class="cls-1" points="306.69 228.5 120 336.27 116.12 334 120.93 344.12 322.92 227.52 306.68 225.3 306.69 228.5"/><polygon class="cls-2" points="301.1 225.23 302.06 224.67 299.33 223.08 298.38 223.63 301.1 225.23"/><polygon class="cls-2" points="302.06 224.67 306.68 225.3 306.66 218.85 299.33 223.08 302.06 224.67"/><polygon class="cls-2" points="119.97 326.62 119.98 329.78 301.1 225.23 298.38 223.63 119.97 326.62"/><polygon class="cls-2" points="301.1 225.23 306.69 228.5 306.68 225.3 302.06 224.67 301.1 225.23"/><polygon class="cls-2" points="119.98 329.78 120 336.27 306.69 228.5 301.1 225.23 119.98 329.78"/><polygon class="cls-3" points="292.73 220.31 298.38 223.63 299.33 223.08 292.76 219.26 292.76 220.3 292.73 220.31"/><polygon class="cls-3" points="292.74 210.96 292.76 219.26 299.33 223.08 306.66 218.85 290.36 209.29 290.36 209.57 292.74 210.96"/><polygon class="cls-3" points="298.38 223.63 292.73 220.31 264.01 236.88 243.86 225.17 243.9 239.15 246.27 237.78 246.3 247.1 217.54 263.71 197.41 252.01 197.45 265.97 199.83 264.6 199.85 273.92 171.09 290.53 150.95 278.82 150.99 292.78 153.36 291.41 153.39 300.75 124.63 317.33 17.45 255.05 7.19 260.46 119.97 326.62 298.38 223.63"/><polygon class="cls-4" points="292.74 210.96 290.36 209.57 290.36 212.33 292.74 210.96"/><polygon class="cls-4" points="243.83 215.86 263.97 227.56 266.36 226.19 243.83 213.1 243.83 215.86"/><polygon class="cls-4" points="197.38 242.69 217.51 254.39 219.89 253.02 197.38 239.93 197.38 242.69"/><polygon class="cls-4" points="150.92 269.48 171.06 281.19 173.44 279.82 150.92 266.73 150.92 269.48"/><polygon class="cls-5" points="243.83 215.86 243.86 225.17 264.01 236.88 263.97 227.56 243.83 215.86"/><polygon class="cls-5" points="197.38 242.69 197.41 252.01 217.54 263.71 217.51 254.39 197.38 242.69"/><polygon class="cls-5" points="266.34 218.91 266.3 204.81 266.3 203.88 266.28 198.33 266.27 195.58 266.27 195.16 266.27 194.71 266.08 124.59 263.71 125.96 263.7 123.2 263.69 122.38 263.68 116.65 263.66 116.64 258.74 119.49 258.02 119.9 255.65 121.28 245.98 126.88 246 136.18 243.62 137.55 243.74 181.66 243.74 181.94 243.74 182.49 243.75 185.24 243.77 190.79 243.77 191.59 243.81 205.82 243.83 213.1 266.36 226.19 266.34 218.91"/><polygon class="cls-5" points="217.21 143.46 217.2 143.47 212.28 146.31 211.56 146.73 209.19 148.1 199.5 153.7 199.51 156 199.51 156.04 199.51 156.78 199.52 159.54 199.53 163 197.74 164.04 197.27 164.31 197.16 164.38 197.2 178.74 197.22 186.01 197.23 188.77 197.26 198.09 197.35 232.63 197.38 239.93 219.89 253.02 219.87 245.72 219.78 211.18 219.75 201.86 219.74 199.1 219.72 191.83 219.69 177.46 219.68 176.8 219.67 171.25 219.66 168.49 219.66 167.81 219.66 167.71 219.62 151.41 217.24 152.78 217.23 150.02 217.23 149.18 217.21 143.48 229.91 136.14 217.21 143.46"/><polygon class="cls-5" points="150.92 269.48 150.95 278.82 171.09 290.53 171.06 281.19 150.92 269.48"/><polygon class="cls-5" points="189.25 159.61 176.72 166.83 170.75 170.27 170.72 170.29 170.44 170.45 168.06 171.82 165.81 173.13 165.08 173.55 162.71 174.93 160.05 176.47 153.06 180.52 153.09 189.82 150.71 191.19 150.75 205.55 150.77 212.85 150.78 215.61 150.8 224.93 150.9 259.47 150.92 266.73 173.44 279.82 173.42 272.56 173.32 238.01 173.29 228.69 173.29 225.93 173.26 218.63 173.17 184.09 173.15 178.24 170.78 179.61 170.77 176.85 170.76 176.01 170.76 173.39 170.75 170.63 170.75 170.3 176.74 166.84 189.25 159.61 189.68 159.36 190.32 158.99 189.68 159.36 189.25 159.61"/><polygon class="cls-5" points="124.3 197.09 123.97 197.28 121.6 198.65 118.66 200.36 124.32 203.65 124.31 200.22 124.3 197.47 124.3 197.12 130.28 193.66 138.68 188.8 130.27 193.65 124.3 197.09"/><polygon class="cls-6" points="197.08 77.95 199.47 79.34 208.14 67.04 303.26 91.73 303.24 86.99 208.12 62.3 197.08 77.95"/><polygon class="cls-6" points="194.82 85.92 192.44 84.54 170.16 116.13 172.54 117.52 194.82 85.92"/><polygon class="cls-6" points="196.61 83.39 199.47 79.34 197.08 77.95 194.23 82 196.61 83.39"/><polygon class="cls-6" points="196.2 83.97 196.61 83.39 194.23 82 193.81 82.59 196.2 83.97"/><polygon class="cls-6" points="194.82 85.92 196.2 83.97 193.81 82.59 192.44 84.54 194.82 85.92"/><polygon class="cls-6" points="149.09 150.77 146.71 149.39 143.24 154.31 145.61 155.7 149.09 150.77"/><polygon class="cls-6" points="161.24 133.54 167.89 124.11 165.51 122.72 158.86 132.15 161.24 133.54"/><polygon class="cls-6" points="156.59 140.13 154.21 138.75 154.06 138.96 156.43 140.35 156.59 140.13"/><polygon class="cls-6" points="161.08 133.77 161.24 133.54 158.86 132.15 158.69 132.39 161.08 133.77"/><polygon class="cls-6" points="159.36 136.2 156.98 134.82 154.21 138.75 156.59 140.13 159.36 136.2"/><polygon class="cls-6" points="160.74 134.25 161.08 133.77 158.69 132.39 158.36 132.87 160.74 134.25"/><polygon class="cls-6" points="156.43 140.35 154.06 138.96 146.71 149.39 149.09 150.77 156.43 140.35"/><polygon class="cls-6" points="160.74 134.25 158.36 132.87 156.98 134.82 159.36 136.2 160.74 134.25"/><polygon class="cls-6" points="172.54 117.52 170.16 116.13 167.31 120.17 169.69 121.56 172.54 117.52"/><polygon class="cls-6" points="169.27 122.15 169.69 121.56 167.31 120.17 166.89 120.77 169.27 122.15"/><polygon class="cls-6" points="169.27 122.15 166.89 120.77 165.51 122.72 167.89 124.11 169.27 122.15"/><polygon class="cls-6" points="115.44 198.49 117.15 196.06 114.77 194.68 113.44 196.57 113.44 197.33 115.44 198.49"/><polygon class="cls-6" points="118.52 194.11 116.14 192.73 114.77 194.68 117.15 196.06 118.52 194.11"/><polygon class="cls-6" points="122.17 188.94 119.79 187.56 116.14 192.73 118.52 194.11 122.17 188.94"/><polygon class="cls-6" points="139.42 164.48 137.04 163.1 119.79 187.56 122.17 188.94 139.42 164.48"/><polygon class="cls-6" points="140.97 162.29 138.59 160.9 137.04 163.1 139.42 164.48 140.97 162.29"/><polygon class="cls-6" points="145.45 155.93 143.07 154.54 141.69 156.5 144.07 157.88 145.45 155.93"/><polygon class="cls-6" points="144.07 157.88 141.69 156.5 140.38 158.35 142.76 159.74 144.07 157.88"/><polygon class="cls-6" points="145.61 155.7 143.24 154.31 143.07 154.54 145.45 155.93 145.61 155.7"/><polygon class="cls-6" points="140.38 158.35 139.96 158.95 142.34 160.34 142.76 159.74 140.38 158.35"/><polygon class="cls-6" points="142.34 160.34 139.96 158.95 138.59 160.9 140.97 162.29 142.34 160.34"/><polygon class="cls-6" points="113.44 197.33 113.45 201.27 113.45 201.27 113.49 201.25 115.44 198.49 113.44 197.33"/><polygon class="cls-7" points="126.97 306.64 17.45 242.99 17.45 245.75 124.6 308.01 126.97 306.64"/><polygon class="cls-8" points="119.97 326.62 7.19 260.46 6.59 260.78 6.59 269.22 6.59 269.74 116.12 334 120 336.27 119.98 329.78 119.97 326.62"/><polygon class="cls-8" points="17.26 181.8 17.28 189.07 17.29 191.82 17.32 201.16 17.45 242.99 126.97 306.64 126.86 264.82 126.84 255.49 126.83 252.73 126.81 245.47 126.72 210.93 126.7 205.04 124.33 206.41 124.32 203.65 118.66 200.36 113.59 203.3 113.46 203.38 22.97 150.8 17.15 147.42 17.17 154.15 17.26 181.8"/><polygon class="cls-8" points="17.45 245.75 17.48 255.03 17.45 255.05 124.63 317.33 124.6 308.01 17.45 245.75"/><polygon class="cls-9" points="287.19 207.74 287.19 207.43 287.19 206.82 286.94 115.38 283.37 117.44 283.61 204.75 283.61 205.33 283.61 205.65 283.62 208.41 283.63 212.59 287.2 210.53 287.2 210.49 287.19 207.74"/><polygon class="cls-9" points="280.12 211.92 280.11 206.37 280.1 203.61 280.1 203.27 280.1 202.72 279.88 119.46 276.31 121.52 276.52 200.64 276.52 201.17 276.52 201.53 276.53 204.29 276.54 209.84 276.54 210.82 276.56 216.67 280.13 214.61 280.12 212.92 280.12 211.92"/><polygon class="cls-9" points="273.03 207.8 273.02 202.25 273.01 199.49 273.01 199.11 273.01 198.61 272.79 123.55 269.23 125.59 269.42 196.53 269.43 197.01 269.43 197.41 269.43 200.16 269.45 205.72 269.45 206.66 269.49 220.75 273.06 218.69 273.04 208.76 273.03 207.8"/><polygon class="cls-9" points="240.68 214.03 240.67 211.26 240.65 203.99 240.61 189.74 240.61 188.96 240.59 183.41 240.59 180.65 240.59 180.09 240.59 179.83 240.48 142.19 236.91 144.25 237 177.75 237 177.99 237 178.57 237.01 181.32 237.03 186.88 237.03 187.64 237.07 201.91 237.09 209.18 237.1 211.94 237.13 221.26 237.18 239.39 240.75 237.33 240.71 223.34 240.68 214.03"/><polygon class="cls-9" points="233.58 209.9 233.58 207.14 233.56 199.87 233.52 185.58 233.52 184.84 233.5 179.28 233.49 176.53 233.49 175.93 233.49 175.72 233.41 146.26 229.84 148.33 229.91 173.64 229.91 173.83 229.91 174.45 229.92 177.2 229.93 182.75 229.94 183.47 229.97 197.78 229.99 205.06 230 207.82 230.03 217.14 230.1 243.48 233.67 241.41 233.61 219.22 233.58 209.9"/><polygon class="cls-9" points="226.5 205.78 226.49 203.02 226.47 195.75 226.43 181.42 226.43 180.72 226.41 175.16 226.41 172.41 226.41 171.77 226.4 171.61 226.35 150.34 222.77 152.41 222.82 169.54 222.82 169.67 222.82 170.33 222.83 173.08 222.84 178.63 222.85 179.32 222.89 193.66 222.91 200.94 222.91 203.7 222.94 213.02 223.03 247.56 226.6 245.49 226.52 215.1 226.5 205.78"/><polygon class="cls-9" points="194.22 240.85 194.22 238.1 194.2 230.8 194.11 196.26 194.08 186.94 194.07 184.18 194.05 176.91 194.03 169 190.46 171.06 190.47 174.83 190.49 182.1 190.5 184.86 190.52 194.18 190.62 228.72 190.63 236.02 190.64 238.77 190.67 248.09 190.71 266.21 194.29 264.15 194.25 250.18 194.22 240.85"/><polygon class="cls-9" points="180.04 232.61 180.03 229.85 180.01 222.56 179.91 188.01 179.88 178.69 179.88 177.17 178.57 177.93 176.31 179.23 176.33 185.93 176.42 220.47 176.44 227.77 176.45 230.52 176.47 239.84 176.57 274.38 180.16 272.31 180.07 241.93 180.04 232.61"/><polygon class="cls-9" points="187.13 236.73 187.12 233.97 187.1 226.68 187 192.13 186.98 182.81 186.97 180.05 186.95 173.09 183.38 175.15 183.39 177.97 183.4 180.73 183.42 190.05 183.52 224.59 183.54 231.89 183.55 234.65 183.57 243.97 183.65 270.29 187.22 268.23 187.16 246.05 187.13 236.73"/><polygon class="cls-9" points="147.76 267.64 147.75 264.89 147.73 257.63 147.64 223.09 147.61 213.77 147.61 211.01 147.59 203.71 147.57 195.83 144 197.89 144.01 201.63 144.03 208.93 144.03 211.69 144.06 221.01 144.15 255.54 144.17 262.81 144.18 265.56 144.2 274.9 144.25 293.04 147.82 290.98 147.78 276.98 147.76 267.64"/><polygon class="cls-9" points="140.67 263.52 140.66 260.77 140.64 253.51 140.55 218.97 140.52 209.65 140.52 206.89 140.5 199.91 136.93 201.97 136.94 204.81 136.95 207.57 136.97 216.89 137.06 251.43 137.08 258.69 137.09 261.44 137.11 270.78 137.18 297.12 140.76 295.06 140.7 272.86 140.67 263.52"/><polygon class="cls-9" points="133.57 259.4 133.57 256.64 133.55 249.38 133.45 214.84 133.42 205.52 133.42 203.98 132.09 204.75 129.84 206.04 129.86 212.76 129.96 247.3 129.98 254.56 129.99 257.32 130.02 266.66 130.12 301.18 133.69 299.14 133.6 268.74 133.57 259.4"/><polygon class="cls-10" points="100.96 0.02 208.12 62.3 303.24 86.99 195.99 24.66 100.98 0 100.96 0.02"/><polygon class="cls-11" points="303.27 93.79 303.26 91.73 261.89 115.61 256.96 118.46 256.25 118.87 253.87 120.24 215.43 142.44 210.51 145.28 209.78 145.7 207.41 147.07 195.76 153.79 195.7 153.83 195.06 154.19 192.69 155.56 187.9 158.33 187.48 158.57 174.95 165.8 168.96 169.26 168.68 169.43 166.3 170.8 164.04 172.1 163.31 172.52 160.94 173.89 158.27 175.43 128.5 192.62 122.21 196.25 119.83 197.62 116.88 199.33 113.45 201.31 113.46 203.22 113.46 203.38 113.59 203.3 118.66 200.36 121.6 198.65 123.97 197.28 124.3 197.09 130.27 193.65 138.68 188.8 153.06 180.48 153.06 180.52 160.05 176.47 162.71 174.93 165.08 173.55 165.81 173.13 168.06 171.82 170.44 170.45 170.72 170.29 170.75 170.27 176.72 166.83 189.25 159.61 189.68 159.36 190.32 158.99 194.46 156.6 196.84 155.23 197.48 154.86 197.52 154.83 199.5 153.68 199.5 153.7 209.19 148.1 211.56 146.73 212.28 146.31 217.2 143.47 217.21 143.46 229.91 136.14 245.98 126.86 245.98 126.88 255.65 121.28 258.02 119.9 258.74 119.49 263.66 116.64 263.68 116.63 278.85 107.88 292.44 100.03 292.44 100.05 303.27 93.79"/><polygon class="cls-11" points="113.49 201.25 113.45 201.27 113.45 201.31 113.49 201.25"/><path class="cls-11" d="M160.23,175l2.37-1.37.73-.42,2.26-1.31,2.38-1.37.28-.16,6-3.46,12.58-7.26.37-.22,4.79-2.76,2.37-1.37.63-.36.11-.07,11.61-6.7,2.38-1.37.72-.42,4.92-2.83,38.45-22.2,2.38-1.37.71-.41,4.93-2.85,20.66-11.92-65.43-17L215,89.82l-2.86,4.06-.41.58-1.38,2L188.05,128l-2.85,4.05-.42.59-1.38,2-6.68,9.47-.13.19-.34.49-1.38,1.95-2.77,3.93-.18.25-7.33,10.39-3.47,4.93-.16.23-1.38,2-1.31,1.86-.42.59-1.38,2L154.93,175l-3.63,5.14,6.26-3.61Zm59.64-74.76v3.11c.48-.25.87-.39,1.31-.59a22.87,22.87,0,0,1,2.85-1.09l.94-.28c.1,0,.22-.07.33-.09v4.58c-1.89.9-5.25,2.68-6.79,3.57l-.35.2c-1.58.92-2.35,1.63-2.34,3.49V114c0,1.56.56,1.86,2.22.9l2.51-1.45c4.64-2.68,5.63,1.12,5.63,4v1.51A12,12,0,0,1,220,130.05V133l-3,1.72v-3a16.32,16.32,0,0,1-5.49,2.09l0-4.56c1.26-.63,4.32-2.14,7.24-3.82,1.33-.77,2.39-1.74,2.39-3.3v-1c0-1.31-.36-1.85-1.9-1l-2.42,1.4c-5.59,3.21-6-1.81-6-3.78v-2.24c0-5.14,2.76-8.4,6.18-10.49v-3.09l1.47-.85Z" transform="translate(-8.25 -6.27)"/><path class="cls-12" d="M301,217.23l-2.37,1.37v-3.67L298.33,117l2.38-1.37,0-9.32v0l-13.58,7.85-15.18,8.77,0,5.72v3.59l2.38-1.37.19,70.12v10.1l0,14.1,0,7.28-2.38,1.37,0,9.32L301,226.58h0v-1Zm-12.61,2v1.69l-3.57,2.06v-6.83l0-5.55v-3.65l-.21-79.12,3.57-2.06.22,83.25v3.66l0,5.55Zm7.07-5.49v3.09l-3.58,2.07V211l-.23-87.31,3.57-2.06.25,91.44Zm-17.74-.77V202.8l-.2-70.94,3.57-2,.21,75.06v3.64l0,5.55v1l0,9.93L277.74,227Z" transform="translate(-8.25 -6.27)"/><path class="cls-12" d="M252.14,245.42l0-14,0-9.31v-2.76l0-7.28,0-14.23v-9.93l-.12-44.11,2.37-1.37,0-9.31v0l-16.06,9.29-12.7,7.34v9.3l2.38-1.37,0,16.3v3.53l0,5.56v.66l0,14.37,0,7.27v2.76l0,9.32.09,34.54,0,7.3-2.37,1.37,0,9.32,28.76-16.61,0-9.32Zm-13.89-31.33v-2.76l0-7.28,0-14.31V189l0-5.55v-3.56l-.07-25.32,3.57-2.06.08,29.46v9.86l0,14.28,0,7.28v2.76l0,9.32.06,22.19-3.57,2.06-.07-26.34Zm10.58-27.73v3.31l0,5.56V196l0,14.25,0,7.27v2.76l0,9.32,0,14-3.56,2.06-.06-18.13,0-9.32v-2.76l0-7.27,0-14.27V184l-.1-33.5,3.57-2.06.11,37.64Zm-17.65,32.93,0-9.32v-2.76l0-7.28,0-14.34v-9.78l0-17.14,3.57-2.06.06,21.27v9.81l0,14.32,0,7.28v2.76l0,9.32.08,30.39-3.57,2.06Z" transform="translate(-8.25 -6.27)"/><path class="cls-12" d="M205.69,272.24l0-14,0-9.32V246.2l0-7.3-.1-34.54,0-9.32v-2.76l0-7.27,0-14.37.11-.06.46-.27,1.8-1V160l-2,1.15-.05,0-.64.37-2.37,1.37-4.14,2.39-.64.37-.43.25L185,173.11l-6,3.46v9.31l2.37-1.37,0,5.85.1,34.54,0,7.3V235l0,9.32.1,34.54,0,7.27-2.38,1.37,0,9.34,28.75-16.61,0-9.32Zm-13.9-31.32v-2.76l0-7.3-.09-34.54,0-9.32v-5.58l3.57-2.06,0,7v2.76l0,9.32.1,34.54,0,7.3V243l0,9.32.06,22.18-3.57,2.06-.07-26.32Zm10.53-50.47v2.76l0,9.32.09,34.54,0,7.3v2.75l0,9.32,0,14L199,272.48l-.05-18.12,0-9.32v-2.76l0-7.29-.09-34.54,0-9.32v-2.76l0-7.27v-3.77l3.57-2.06,0,7.91Zm-17.6,55.66,0-9.32V234l0-7.3-.1-34.54v-6.7l2.25-1.3,1.32-.76V185l0,9.32.1,34.54,0,7.3v2.76l0,9.32.09,30.38-3.59,2.07Z" transform="translate(-8.25 -6.27)"/><path class="cls-12" d="M159.23,299.05l0-14,0-9.34V273l0-7.27-.09-34.53,0-9.33v-2.75l0-7.3,0-14.36,2.37-1.37,0-9.3v0l-14.38,8.32-8.4,4.86-6,3.46v9.29l2.38-1.37v5.89l.1,34.54,0,7.26v2.75l0,9.34.11,41.82-2.37,1.37,0,9.32L161.64,307l0-9.34Zm-13.9-31.34V265l0-7.27-.09-34.53,0-9.32v-5.6l3.56-2.07,0,7v2.76l0,9.32.1,34.54,0,7.26v2.75l0,9.34.06,22.19-3.57,2.07-.07-26.34Zm10.52-50.43V220l0,9.33.1,34.53,0,7.27v2.75l0,9.34,0,14-3.57,2.07-.05-18.14,0-9.34v-2.75l0-7.27-.1-34.53,0-9.33V215.2l0-7.3v-3.74l3.57-2.06,0,7.88Zm-17.61,46.31v-2.76l0-7.26-.1-34.54,0-6.72,2.25-1.3,1.32-.76v1.54l0,9.32.1,34.54,0,7.26v2.76l0,9.34.08,30.4-3.57,2-.1-34.52Z" transform="translate(-8.25 -6.27)"/><path class="cls-12" d="M216.76,121.53l2.42-1.4c1.54-.88,1.9-.34,1.9,1v1c0,1.56-1.06,2.53-2.39,3.3-2.92,1.68-6,3.19-7.24,3.82l0,4.56a16.32,16.32,0,0,0,5.49-2.09v3l3-1.72v-2.94a12,12,0,0,0,6.24-11.11v-1.51c0-2.88-1-6.68-5.63-4l-2.51,1.45c-1.66,1-2.22.66-2.22-.9v-.88c0-1.86.76-2.57,2.34-3.49l.35-.2c1.54-.89,4.9-2.67,6.79-3.57v-4.58c-.11,0-.23.07-.33.09l-.94.28a22.87,22.87,0,0,0-2.85,1.09c-.44.2-.83.34-1.31.59V100.2l-1.52.88-1.47.85V105c-3.42,2.09-6.18,5.35-6.18,10.49v2.24C210.72,119.72,211.17,124.74,216.76,121.53Z" transform="translate(-8.25 -6.27)"/><path class="cls-12" d="M216.38,73.31l-8.67,12.3-2.86,4-.41.58-1.37,2-22.28,31.6-2.85,4-.42.59-1.38,2-6.66,9.44-.16.23-.34.48-1.37,1.95-2.77,3.93-.16.22L157.33,157,153.86,162l-.16.24-1.38,2L151,166l-.42.59-1.38,2-1.55,2.19-17.25,24.46-3.64,5.17-1.38,2-1.71,2.43-1.94,2.75,0,.06h0l3.43-2,3-1.71,2.37-1.37,6.29-3.63,29.77-17.19,2.67-1.54,2.38-1.37.73-.42,2.25-1.3,2.38-1.38.28-.16,6-3.46,12.54-7.23.42-.24,4.78-2.77,2.38-1.37.63-.36.06,0,11.65-6.72L218,152l.72-.41,4.92-2.84,38.45-22.2,2.37-1.37.72-.41,4.93-2.85L311.51,98Zm-59.91,99.47,1.38-2,.42-.59,1.31-1.86,1.38-2,.16-.23,3.47-4.93,7.33-10.39.18-.25,2.77-3.93,1.38-1.95.34-.49.13-.19,6.68-9.47,1.38-2,.42-.59,2.85-4.05,22.27-31.59,1.38-2,.41-.58L215,89.82l1.45-2.06,65.43,17-20.66,11.92-4.93,2.85-.71.41-2.38,1.37-38.45,22.2-4.92,2.83-.72.42-2.38,1.37-11.61,6.7-.11.07-.63.36L192,156.63l-4.79,2.76-.37.22-12.58,7.26-6,3.46-.28.16-2.38,1.37-2.26,1.31-.73.42L160.23,175l-2.67,1.54-6.26,3.61,3.63-5.14Z" transform="translate(-8.25 -6.27)"/><polygon class="cls-13" points="14.68 145.82 14.68 143.91 6.31 139.04 6.31 141.08 14.66 145.93 14.76 145.87 14.68 145.82"/><polygon class="cls-13" points="23.11 150.72 14.76 145.87 14.66 145.93 17.15 147.37 17.15 147.42 22.97 150.8 23.11 150.72"/><polygon class="cls-13" points="23.11 150.72 22.97 150.8 113.46 203.38 113.46 203.22 23.11 150.72"/><polygon class="cls-13" points="14.68 143.91 14.68 145.82 14.76 145.87 16.42 144.92 14.68 143.91"/><polygon class="cls-13" points="16.42 144.92 14.76 145.87 23.11 150.72 24.76 149.77 16.42 144.92"/><polygon class="cls-13" points="113.45 201.31 113.45 201.31 24.76 149.77 23.11 150.72 113.46 203.22 113.45 201.31"/><rect class="cls-13" x="113.45" y="201.27" height="0.04"/><polygon class="cls-13" points="113.45 201.31 113.45 201.31 113.45 201.31 113.45 201.31"/><polygon class="cls-10" points="14.66 139.17 6.29 134.3 6.29 135.07 14.67 139.93 14.66 139.17"/><polygon class="cls-10" points="20.5 142.56 14.66 139.17 14.67 139.93 19.84 142.94 20.5 142.56"/><polygon class="cls-10" points="28.84 147.41 20.5 142.56 19.84 142.94 28.19 147.79 28.84 147.41"/><polygon class="cls-10" points="113.44 196.57 28.84 147.41 28.19 147.79 113.44 197.33 113.44 196.57"/><polygon class="cls-10" points="14.67 139.93 6.29 135.07 6.31 139.01 14.68 143.87 14.67 139.93"/><polygon class="cls-10" points="19.84 142.94 14.67 139.93 14.68 143.87 16.45 144.9 19.84 142.94"/><polygon class="cls-10" points="28.19 147.79 19.84 142.94 16.45 144.9 24.79 149.75 28.19 147.79"/><polygon class="cls-10" points="28.19 147.79 24.79 149.75 113.45 201.27 113.44 197.33 28.19 147.79"/><polygon class="cls-10" points="14.68 143.87 6.31 139.01 6.31 139.04 14.68 143.91 14.68 143.87"/><polygon class="cls-10" points="16.45 144.9 14.68 143.87 14.68 143.91 16.42 144.92 16.45 144.9"/><polygon class="cls-10" points="16.45 144.9 16.42 144.92 24.76 149.77 24.79 149.75 16.45 144.9"/><polygon class="cls-10" points="24.79 149.75 24.76 149.77 113.45 201.31 113.45 201.27 24.79 149.75"/><polygon class="cls-14" points="100.96 0.02 89.92 15.68 87.06 19.73 86.65 20.32 85.28 22.27 66.49 48.91 63.35 53.36 63 53.86 60.15 57.9 59.73 58.49 58.35 60.45 36.07 92.04 33.22 96.08 32.8 96.67 31.43 98.63 20.14 114.64 16.99 119.1 6.29 134.27 6.29 134.3 14.66 139.17 20.5 142.56 28.84 147.41 113.44 196.57 114.77 194.68 116.14 192.73 119.79 187.56 137.04 163.1 138.59 160.9 139.96 158.95 140.38 158.35 141.69 156.5 143.07 154.54 143.24 154.31 146.71 149.39 154.06 138.96 154.21 138.75 156.98 134.82 158.36 132.87 158.69 132.39 158.86 132.15 165.51 122.72 166.89 120.77 167.31 120.17 170.16 116.13 192.44 84.54 193.81 82.59 194.23 82 197.08 77.95 208.12 62.3 100.96 0.02"/><polygon class="cls-15" points="120.96 354.56 322.95 237.96 322.92 227.52 120.93 344.12 120.96 354.56"/><polygon class="cls-16" points="0.02 284.51 120.96 354.56 120.93 344.12 0.02 274.09 0.02 284.51"/></svg>