<svg id="Camada_1" data-name="Camada 1" xmlns="http://www.w3.org/2000/svg" viewBox="0 0 116.34 32.84"><defs><style>.cls-1,.cls-2{fill:#00a9f1;}.cls-2{font-size:7.31px;font-family:FuturaStd-Book, Futura Std;}</style></defs><path class="cls-1" d="M24.62,27.23c.06.69.12,1.34.18,1.87,0,.15,0,.42.07.53.09.88.15,1.41.22,1.87A2,2,0,0,1,23,33.56l-.1,0h-.34a2,2,0,0,1-2.21-1.79c0-.23,0-.69-.06-1.11s-.06-1-.1-1.56-.06-1.14-.09-1.6c0-.65-.06-1.22-.09-1.79H13.47l-.69,1.75c-.25.61-.47,1.26-.72,1.83-.37.95-.68,1.79-.87,2.36a2.78,2.78,0,0,1-2.77,2,.75.75,0,0,0-.28,0c-.9,0-1.71-.91-1.37-1.71.9-1.87,2-4.27,2.9-6.48l.74-1.68c1.56-3.54,4.68-11,6.23-14.9A3.33,3.33,0,0,1,19.82,7a3.66,3.66,0,0,0,.66,0,2.4,2.4,0,0,1,2.58,2c.06,1.06.12,2.13.22,3.24,0,.19,0,.38,0,.57s0,.46.06.65,0,.26,0,.42ZM14.56,22.77c1.87,0,2.64,0,3.3,0s1.18,0,1.9,0c-.09-1.25-.16-2.55-.25-3.81s-.22-2.55-.31-3.81S19,13.05,19,12.52v0s0,.08-.06.12c-.19.38-.35.76-.53,1.18-.25.57-.5,1.1-.69,1.52s-.28.65-.34.84Z" transform="translate(-6.69 -6.94)"/><path class="cls-1" d="M29.52,21.44c.59-3.29,1.78-12.95,1.84-13.13.56-1.95,4.55-1.92,4.37.74a8.09,8.09,0,0,0-.19.9c-.06.21-.57,4-.6,4.23-.09.49-.22,1.14-.38,1.91-.09.58-.18,1.29-.31,1.9a8.22,8.22,0,0,0-.15.84c1.09-1.36,2.65-2.8,4.67-2.8a4.92,4.92,0,0,1,5.17,5.32,13.3,13.3,0,0,1-.47,3.32c-1.43,5.24-5.2,9-11.24,9a11.8,11.8,0,0,1-3.18-.34h0a1.91,1.91,0,0,1-1.46-2.43c.22-.8.43-1.79.81-3.6Zm4.83-.34c-1.5,2.43-2.06,7.21-2.43,10.37a6.36,6.36,0,0,0,1.34.16c5.7,0,6.38-7.48,6.38-9.23,0-1.94-.56-3.64-2.15-3.64C36.37,18.76,35.22,19.72,34.35,21.1Z" transform="translate(-6.69 -6.94)"/><path class="cls-1" d="M46.28,21.72a15.78,15.78,0,0,0,.37-3.39,1.62,1.62,0,0,1,1.56-1.69l.81-.09h0c1.12-.22,2.18.4,2.12,1.14,0,.09,0,.4-.1.61s-.09.25-.12.4A8.32,8.32,0,0,1,52.69,17a8.52,8.52,0,0,1,1.81-.83c1.15-.34,2.09.52,1.81,1.38s-1.47,1.36-2.65,1.63h0c-1.18.31-2.77,1.6-3.61,4.65a59.75,59.75,0,0,0-1.34,8.15,2.16,2.16,0,0,1-2.34,1.63h-.15c-1.09,0-2.09-.71-1.87-1.54a13.28,13.28,0,0,0,.37-1.48Z" transform="translate(-6.69 -6.94)"/><path class="cls-1" d="M69.84,16.46c1.12-.34,2.12.52,2,1.35-.22,1-.56,2.59-1.09,5.42l-.56,3a42.19,42.19,0,0,0-.69,5.54c0,.77-1,1.33-2.08,1.36s-2-.62-2-1.39c0-.52.13-1.23.25-1.88-1.27,1.73-2.93,3.61-5.35,3.61a4.91,4.91,0,0,1-5.14-5.17,15,15,0,0,1,5.38-10.59A8.93,8.93,0,0,1,66,16a8.69,8.69,0,0,1,3.33.65Zm-2.37,2a6.22,6.22,0,0,0-2-.4c-4.74,0-6,6.58-6,9.11,0,2.09.59,3.6,2.15,3.6a3.94,3.94,0,0,0,3.11-2c.84-1.14,1.37-2.93,1.9-6Z" transform="translate(-6.69 -6.94)"/><path class="cls-1" d="M74.49,22.21a25.65,25.65,0,0,0,.47-4v-.18a1.54,1.54,0,0,1,1.49-1.63c.31,0,.56-.07.87-.13l.16,0c1-.12,2.06.52,2,1.26-.06.37.1-.27-.06.5a5.47,5.47,0,0,1,.59-.59,7.78,7.78,0,0,1,4.7-1.54c2,0,4.62.68,4.62,3.26a16.42,16.42,0,0,1-.35,2.65c-.12.65-.25,1.45-.37,2.16s-.28,1.41-.41,2.12c-.25,1.32-.68,4.33-.77,5.87-.07.92-1.16,1.6-2.37,1.6h-.28c-1,0-2-.68-1.75-1.45a51.89,51.89,0,0,0,1.12-5.93l.38-2a21.9,21.9,0,0,0,.47-3.6c0-1.48-.47-2.09-1.84-2.09a5.21,5.21,0,0,0-3.52,2.06c-1,1.23-1.34,3.51-1.62,5.17l-.56,4.11A18.66,18.66,0,0,0,77.17,32c-.06.89-1.19,1.51-2.37,1.51h-.25c-1.06,0-2-.71-1.81-1.42a29.58,29.58,0,0,0,.75-3.63Z" transform="translate(-6.69 -6.94)"/><path class="cls-1" d="M104.72,30.55c-.81,4.4-1.41,6.68-6.14,8.4h0a15.89,15.89,0,0,1-5.36.83,13.27,13.27,0,0,1-2.4-.18c-.84-.22-1.46-1-1.12-1.7a2.1,2.1,0,0,1,2.56-.77,6.3,6.3,0,0,0,1.9.28,5.8,5.8,0,0,0,4.3-1.75c1-.93,1.61-2,2.24-5.17-1.12,1.54-2.59,3-4.83,3a4.91,4.91,0,0,1-4.36-2.07h0a5.78,5.78,0,0,1-.93-3.26C90.64,23.2,94.31,16,101.32,16a8.08,8.08,0,0,1,3.52.74h-.09a.1.1,0,0,1,.06,0l.37-.15c1.16-.4,2.25.37,2,1.29a44.55,44.55,0,0,0-1,4.74Zm-3.84-12.46c-5,0-5.91,6.61-5.91,9a5.21,5.21,0,0,0,.49,2.5,2,2,0,0,0,1.65,1.17c1.06,0,2.25-1,3.09-2.13.93-1.51,1.52-4.15,2.71-10H103A5.38,5.38,0,0,0,100.88,18.09Z" transform="translate(-6.69 -6.94)"/><path class="cls-1" d="M115.37,31.44a7.2,7.2,0,0,0,2.8-.61c.78-.34,1.72.12,1.53.8a2.72,2.72,0,0,1-2,1.66,15.36,15.36,0,0,1-3.06.31c-5.42-.16-6.76-3-6.82-6.86a12,12,0,0,1,2.74-7.33A9.65,9.65,0,0,1,118,15.9c3.33,0,5,1.63,5,3.76a6.28,6.28,0,0,1-1.12,3.11,8.46,8.46,0,0,1-3.21,2.52,15.13,15.13,0,0,1-6.42,1.2,6.72,6.72,0,0,0-.06,1.11C112.22,29.07,112.66,31.47,115.37,31.44Zm-3-5.81a10.24,10.24,0,0,0,5.08-2.8,4.35,4.35,0,0,0,1.27-3c0-1.32-.65-1.94-1.43-1.94-.47,0-1.53.22-2.86,1.76A11.85,11.85,0,0,0,112.41,25.63Z" transform="translate(-6.69 -6.94)"/><text class="cls-2" transform="translate(33.72 6.31)">Instituto Social</text></svg>