<svg xmlns="http://www.w3.org/2000/svg" viewBox="0 0 103.57 104.45"><defs><style>.cls-1{fill:none;}.cls-2{fill:#a8a8a8;}.cls-3{fill:#fff;}</style></defs><g id="Camada_1" data-name="Camada 1"><path class="cls-1" d="M94.8,69.49A24.29,24.29,0,0,0,93.33,65c-.27-.6-.56-1.17-.86-1.69-3.45-4.88-7.53-6.89-11.4-7.4h0c-.4,0-.8,0-1.23,0h0a26,26,0,0,0-4.44.22h-.1l-.57.09a206.83,206.83,0,0,0,5.07,22s0,.05,0,.07a43.86,43.86,0,0,0,1.65,5.58.7.7,0,0,1,0,.12c0,.08,0,.09,0,.09a12.84,12.84,0,0,0,.61,1.49c.11.23.23.46.34.68,1.81,3.43,4,5.09,6,5.79C92.81,89.3,96.82,78.64,94.8,69.49Z" transform="translate(-1.72 -1.77)"/><path class="cls-1" d="M60.85,39.36c-.27-.57-.5-1-.69-1.35A23,23,0,0,0,58,34.64a5.35,5.35,0,0,0-.37-.5l0,0a19.4,19.4,0,0,0-3.33-3.24,8.62,8.62,0,0,0-1.48-.25,10.28,10.28,0,0,0-4.21.57.05.05,0,0,0-.05,0A24.24,24.24,0,0,0,39.72,37c-.52.49-1,1-1.57,1.55,0,0-18.13,18.39-24.34,38.87a52.54,52.54,0,0,0-1.34,5.4v0c-.14.68-3,15.48,13.37.76,1.57-1.42,3.08-2.74,4.55-4,2.85-2.75,5.54-5.26,8-7.51,2-1.79,3.85-3.41,5.61-4.9,2.72-2.31,5.17-4.29,7.37-6,3.85-3,6.88-5,9.11-6.42a.34.34,0,0,0,.16-.1c1.5-.87,3.13-1.75,4.83-2.56-.86-2.84-3.16-9.45-4.63-12.69A.16.16,0,0,1,60.85,39.36Z" transform="translate(-1.72 -1.77)"/><path class="cls-2" d="M104.87,74.27c-.74-5.32-2.72-12.21-7.35-17.53-.37-.42-.75-.82-1.13-1.2-.22-.22-.44-.42-.66-.62a7,7,0,0,0-.93-.81,8.8,8.8,0,0,0-.8-.63,10.74,10.74,0,0,0-.91-.68c-.24-.15-.45-.31-.67-.45s-.59-.37-.89-.54a9.17,9.17,0,0,0-.87-.48,2.53,2.53,0,0,0-.23-.12A23.93,23.93,0,0,0,86,49.52h0a29.75,29.75,0,0,0-5.72-1,.54.54,0,0,0-.18,0A9.81,9.81,0,0,0,79,48.46a25.65,25.65,0,0,0-4.73.61l-.48.1c-.08-.48-.18-1-.27-1.47v0C72,39.15,69.57,21.19,64.07,11a19.81,19.81,0,0,0-3.75-5.15c-3.47-.48-7.39.54-11.15,2.86L48.75,9l.17-.13c.08-.06.17-.1.25-.15,4.3-2.77,8.21-3.32,11.15-2.86l-.41-.39a.26.26,0,0,0-.11-.08,11.14,11.14,0,0,0-2.35-1.73,11.86,11.86,0,0,0-2.69-1.09c-5.62-2.19-12.87.15-22.18,11a113.38,113.38,0,0,0-29.34,59c-.16,1-.31,1.92-.44,2.88-.35,2.44-.61,4.89-.79,7.38l0,.46c0,.06,0,.13,0,.19-.06.88-.1,1.77-.15,2.65,0,.72-.06,1.43-.07,2.14v0c0,1,0,2,0,3.07s0,1.75,0,2.62c0,0,0,.09,0,.13.56,5.31,2.29,8.77,4.86,10.41a1.23,1.23,0,0,0,.25.17,7.29,7.29,0,0,0,1.41.6,11.31,11.31,0,0,0,4.61-1,11.48,11.48,0,0,1-4.17,1.09l.19.06a2.79,2.79,0,0,0,.4.07,11.14,11.14,0,0,0,6-.87l.34-.14a17.34,17.34,0,0,0,1.85-1,.17.17,0,0,1,0,.08,35.21,35.21,0,0,0,6.73-4.86,62.11,62.11,0,0,0,5.8-6l1-1.2.91-1.1a173.21,173.21,0,0,1,13.67-15.1l.26-.26c1.94-1.89,3.9-3.72,5.91-5.53,1-1,2.12-2,3.22-2.94a76.07,76.07,0,0,1,9.52-7.41l0,0c.39-.26.79-.51,1.18-.75,0,0,0,0,.06,0,.62-.4,1-.67,1.26-.79a0,0,0,0,0,0,0l0,0,.41,1.66a.18.18,0,0,0,0,.06c1.54,5.81,3.67,14.45,6.6,27.22,0,0,0,0,0,0,2.91,10,7,16.43,12.24,18.71a11.34,11.34,0,0,0,5.72.85c3.66-.35,6.4-2.44,8.42-5.46a1.1,1.1,0,0,1,.11-.14C105.17,93.57,105.91,81.68,104.87,74.27ZM53.6,30.37l0,0a.45.45,0,0,1,.12.06l.52.4a19.4,19.4,0,0,1,3.33,3.24l0,0a5.35,5.35,0,0,1,.37.5A23,23,0,0,1,60.16,38c.19.31.42.78.69,1.35a.16.16,0,0,0,0,.08c1.47,3.24,3.77,9.85,4.63,12.69-1.7.81-3.33,1.69-4.83,2.56a.34.34,0,0,1-.16.1c-2.23,1.4-5.26,3.46-9.11,6.42-2.2,1.68-4.65,3.66-7.37,6-1.76,1.49-3.63,3.11-5.61,4.9-2.5,2.25-5.19,4.76-8,7.51-.49.47-1,.94-1.47,1.43-.9.87-1.8,1.75-2.73,2.68-6.87,6.71-10.5,7.48-12.42,6.22A3.13,3.13,0,0,1,12,87.15a13.53,13.53,0,0,1-.35-3.87v0a47.62,47.62,0,0,1,.63-5.42c3.61-20.69,20.43-40.3,20.43-40.3.49-.59,1-1.15,1.47-1.68a24.08,24.08,0,0,1,8.68-6.58h0a11.63,11.63,0,0,1,4.46-.9A11.15,11.15,0,0,1,53.6,30.37ZM5.36,74.67c-.66,2.45-1.25,4.91-1.76,7.41l-.09.47a1.06,1.06,0,0,0,0,.19Q3.2,84.07,3,85.41c-.13.72-.26,1.44-.37,2.16A79.89,79.89,0,0,1,6.18,71.78C5.9,72.74,5.63,73.71,5.36,74.67ZM94.54,91.49a7.31,7.31,0,0,1-6.12.54c-2-.7-4.18-2.36-6-5.79-.11-.22-.23-.45-.34-.68a12.84,12.84,0,0,1-.61-1.49s0,0,0-.09a.7.7,0,0,0,0-.12,43.86,43.86,0,0,1-1.65-5.58s0,0,0-.07a206.83,206.83,0,0,1-5.07-22c-.1-.63-.2-1.25-.28-1.87h0c0-.17-.06-.33-.1-.5h0c.09,0,.45-.11,1-.21l.11,0a27.56,27.56,0,0,1,4.74-.43h0c.46,0,.9-.05,1.33-.05h0c4.24.37,8.91,2.34,13.31,7.43.39.56.78,1.16,1.15,1.8a27.79,27.79,0,0,1,2.2,4.76C101.67,77,98.85,88.55,94.54,91.49Z" transform="translate(-1.72 -1.77)"/><path class="cls-3" d="M95.4,59.87c-.3-.4-.6-.78-.91-1.15-.18-.21-.35-.41-.53-.6a21.78,21.78,0,0,0-1.43-1.39,9.35,9.35,0,0,0-.76-.67l-.57-.44c-.25-.2-.5-.36-.75-.53a7.34,7.34,0,0,0-.75-.48,1.37,1.37,0,0,0-.2-.13,20.92,20.92,0,0,0-3.85-1.75H85.6a26.15,26.15,0,0,0-5.15-1.17,1,1,0,0,0-.17,0c-.32-.06-.65-.09-1-.12a25.68,25.68,0,0,0-4.9.45c0-.46,0-.93-.06-1.4v0c0-.39,0-.82,0-1.25a.66.66,0,0,0,0-.14c-.3-8.54-.45-24.33-4-33.85A17.08,17.08,0,0,0,67.2,9.64a.34.34,0,0,0-.09-.08A10.09,10.09,0,0,0,65.2,7.72a10.25,10.25,0,0,0-4.88-1.91c-3.47-.48-7.39.54-11.15,2.86L48.75,9a51.79,51.79,0,0,0-7.52,6.24,124.73,124.73,0,0,0-35,56.59c-.28,1-.55,1.93-.82,2.89-.66,2.45-1.25,4.91-1.76,7.41l-.09.47a1.06,1.06,0,0,0,0,.19Q3.2,84.07,3,85.41c-.13.72-.26,1.44-.37,2.16v0c-.17,1-.33,2.06-.47,3.1s-.23,1.77-.34,2.65c0,.24,0,.46,0,.7.56,5.31,2.29,8.77,4.86,10.41a1.23,1.23,0,0,0,.25.17,7.29,7.29,0,0,0,1.41.6,11.31,11.31,0,0,0,4.61-1l.34-.13a20.36,20.36,0,0,0,1.84-1,.17.17,0,0,1,0,.08A39.94,39.94,0,0,0,22,98.47a75.87,75.87,0,0,0,6.2-5.86l1.08-1.16,1-1.08a187.07,187.07,0,0,1,15-14.72l.38-.32c1.92-1.66,3.85-3.28,5.82-4.86,1.1-.94,2.23-1.85,3.37-2.73A80,80,0,0,1,64.56,61l0,0c.39-.23.8-.46,1.19-.66l.06,0c.62-.36,1-.6,1.26-.71h0v0l.17,1.59s0,0,0,.06c.69,5.57,1.56,13.82,2.66,26,0,0,0,0,0,0,2,12.66,6.64,19.31,14.33,18.48a10.61,10.61,0,0,0,2.06-.43,13.6,13.6,0,0,0,6.5-4.7,1.42,1.42,0,0,1,.12-.13c5.11-6.48,7.22-17.43,7.14-24.27C100.07,71.3,99.05,64.92,95.4,59.87ZM12,87.15a4.63,4.63,0,0,0,1.74,2.77A3.13,3.13,0,0,1,12,87.15ZM38.74,72.53q-3,2.43-6.33,5.31c-.66.56-1.34,1.16-2,1.75-1.47,1.29-3,2.61-4.55,4-16.36,14.72-13.51-.08-13.37-.76v0a52.54,52.54,0,0,1,1.34-5.4C20,57,38.15,38.56,38.15,38.56,38.68,38,39.2,37.5,39.72,37a24.24,24.24,0,0,1,8.83-5.82.05.05,0,0,1,.05,0,10.28,10.28,0,0,1,4.21-.57,8.62,8.62,0,0,1,1.48.25l.21.05a9.61,9.61,0,0,1,3.72,2s0,0,0,0a.26.26,0,0,1,.11.07,16,16,0,0,1,3.06,3.7s0,0,0,0a5,5,0,0,1,.28.49,21.15,21.15,0,0,1,1.53,3.34c.13.31.28.76.45,1.32a.31.31,0,0,0,0,.08c.94,3.16,2.21,9.56,2.65,12.3-1.68.7-3.29,1.46-4.79,2.23a.35.35,0,0,1-.16.08c-2.23,1.25-5.3,3.1-9.25,5.8-2.25,1.54-4.77,3.37-7.59,5.51C42.76,69.33,40.81,70.85,38.74,72.53ZM88.41,92c-1.78,1.1-7.72,2.52-10.65-5l-.24-.65A14.27,14.27,0,0,1,77.14,85a.25.25,0,0,1,0-.08s0-.08,0-.12a37.54,37.54,0,0,1-.84-5.28s0,0,0-.06a175.24,175.24,0,0,1-2-22.62h0c0-.16,0-.31,0-.47,0,0,0,0,0,0l.39-.06.57-.09h.1a26,26,0,0,1,4.44-.22h0c.43,0,.83,0,1.23,0h0c3.87.51,8,2.52,11.4,7.4.3.52.59,1.09.86,1.69a24.29,24.29,0,0,1,1.47,4.46c2,9.15-2,19.81-6.38,22.54Z" transform="translate(-1.72 -1.77)"/></g></svg>