<svg id="Camada_1" data-name="Camada 1" xmlns="http://www.w3.org/2000/svg" viewBox="0 0 118.1 119.23"><defs><style>.cls-1{fill:none;}.cls-2{fill:#59c488;}.cls-3{fill:#59c7f6;}.cls-4{fill:#00a9f1;isolation:isolate;}</style></defs><path class="cls-1" d="M106.24,77.29a28.37,28.37,0,0,0-1.68-5.09,20.76,20.76,0,0,0-1-1.94c-3.94-5.55-8.6-7.85-13-8.44H89.14a30.59,30.59,0,0,0-5.06.25H84l-.65.09A236.58,236.58,0,0,0,89,87.25v.07a48.94,48.94,0,0,0,1.88,6.37.33.33,0,0,1,0,.14c0,.09,0,.1,0,.1a16.85,16.85,0,0,0,.7,1.7c.12.27.26.53.39.78,2.06,3.91,4.53,5.81,6.84,6.6C104,99.9,108.54,87.74,106.24,77.29Z" transform="translate(-0.1 0.02)"/><path class="cls-1" d="M60,33.2a11,11,0,0,0-1.7-.29,12,12,0,0,0-4.8.65h0c-2.92,1-6.27,3-10.09,6.65-.6.55-1.18,1.14-1.79,1.77,0,0-20.7,21-27.78,44.36q-.93,3-1.56,6.17h0c-.16.78-3.41,17.66,15.26.87,1.82-1.57,3.54-3.1,5.22-4.57,3.26-3.15,6.33-6,9.17-8.57,2.26-2,4.4-3.89,6.41-5.6,3.11-2.62,5.94-4.83,8.41-6.83,4.4-3.38,7.86-5.73,10.41-7.33a.39.39,0,0,0,.17-.11c1.72-1,3.57-2,5.52-2.92-1-3.24-3.61-10.79-5.29-14.49a.14.14,0,0,1,0-.09c-.3-.65-.57-1.18-.78-1.54a26.69,26.69,0,0,0-2.5-3.82,4.63,4.63,0,0,0-.43-.56.06.06,0,0,0,0-.06A22.88,22.88,0,0,0,60,33.2Z" transform="translate(-0.1 0.02)"/><path class="cls-2" d="M35,86.81l6.86-6.57c-2.84,2.57-5.91,5.43-9.17,8.57Z" transform="translate(-0.1 0.02)"/><path class="cls-2" d="M63.8,36.89a17.26,17.26,0,0,0-3.56-3.63L60,33.2A22.82,22.82,0,0,1,63.8,36.89Z" transform="translate(-0.1 0.02)"/><path class="cls-2" d="M88.38,53.37a6.25,6.25,0,0,1,1.06,0q-.6-.07-1.2-.09a31.56,31.56,0,0,0-5.39.7.43.43,0,0,0,0,.16C85.93,53.56,88.38,53.37,88.38,53.37Z" transform="translate(-0.1 0.02)"/><path class="cls-2" d="M40.06,8.53c1.18-1.14,2.37-2.24,3.58-3.34C49.07,1.1,55.24-.6,60.54.81c-6.42-2.46-14.7.21-25.3,12.63,1.12-1.18,2.25-2.35,3.39-3.49C39.09,9.47,39.57,9,40.06,8.53Z" transform="translate(-0.1 0.02)"/><path class="cls-2" d="M67.29,60.4a.39.39,0,0,1-.17.11c-2.55,1.6-6,4-10.41,7.33-2.47,2-5.3,4.18-8.41,6.81A197.3,197.3,0,0,1,72.93,57.42h0A83.48,83.48,0,0,0,67.52,43c1.68,3.7,4.31,11.25,5.29,14.49C70.86,58.4,69,59.4,67.29,60.4Z" transform="translate(-0.1 0.02)"/><path class="cls-2" d="M32.58,101.12l-1.13,1.23-1.21,1.33a82.85,82.85,0,0,1-7.08,6.69,44.69,44.69,0,0,1-7.92,5.44.14.14,0,0,0,0-.09,20.88,20.88,0,0,1-2.1,1.09l-.38.16A13.16,13.16,0,0,1,8,118.21l.21.07a3.55,3.55,0,0,0,.47.08,12.8,12.8,0,0,0,6.88-1l.39-.17a21,21,0,0,0,2.1-1.1v.09a39.93,39.93,0,0,0,7.68-5.55,71,71,0,0,0,6.61-6.82l1.13-1.37,1-1.26A194.3,194.3,0,0,1,50.07,84l-.43.36A211.43,211.43,0,0,0,32.58,101.12Z" transform="translate(-0.1 0.02)"/><path class="cls-2" d="M92.12,96.41c-.13-.25-.27-.51-.39-.78a16.85,16.85,0,0,1-.7-1.7l0-.1a.33.33,0,0,0,0-.14,48.94,48.94,0,0,1-1.88-6.37v-.07a236.94,236.94,0,0,1-5.86-25.08l-.44.08h0v.53h0a199.34,199.34,0,0,0,2.25,25.81v.07a43.42,43.42,0,0,0,1,6v.23a15.36,15.36,0,0,0,.44,1.61c.08.25.18.5.27.73,3.34,8.6,10.12,7,12.15,5.73h0C96.65,102.22,94.18,100.32,92.12,96.41Z" transform="translate(-0.1 0.02)"/><path class="cls-2" d="M117.73,82.74c-.85-6.07-3.11-13.93-8.39-20q-.63-.72-1.29-1.38c-.25-.25-.5-.47-.75-.7a8.42,8.42,0,0,0-1.06-.92,9,9,0,0,0-.91-.72,10.73,10.73,0,0,0-1-.78l-.76-.51c-.34-.23-.68-.42-1-.62a9.64,9.64,0,0,0-1-.54.94.94,0,0,0-.26-.14,28.12,28.12,0,0,0-5-1.94h0a33.57,33.57,0,0,0-6.52-1.12h-.22a6.25,6.25,0,0,0-1.06,0s-2.45.19-5.56.77v1.43h0c0,.54.06,1.08.07,1.6a29.07,29.07,0,0,1,5.59-.51,6.85,6.85,0,0,1,1.13.13h.2a30.36,30.36,0,0,1,5.88,1.34h0a24.56,24.56,0,0,1,4.4,2l.23.14c.29.17.58.36.85.55s.58.39.86.61l.65.5c.3.23.58.49.87.76a7.22,7.22,0,0,1,.75.71,6.1,6.1,0,0,1,.88.88c.2.22.4.44.6.68a13.87,13.87,0,0,1,1,1.32c4.17,5.76,5.33,13,5.4,18.65.09,7.81-2.32,20.3-8.15,27.7l-.13.15a15.52,15.52,0,0,1-7.42,5.36,13,13,0,0,0,6.52,1c4.18-.41,7.3-2.79,9.61-6.23a.65.65,0,0,1,.13-.16C118.07,104.81,118.91,91.2,117.73,82.74Z" transform="translate(-0.1 0.02)"/><path class="cls-2" d="M.46,101.49c.16-1.19.33-2.37.53-3.55H1a91.15,91.15,0,0,1,4.1-18,142.24,142.24,0,0,1,40-64.58,59.15,59.15,0,0,1,8.58-7.13l.19-.15.29-.17c4.92-3.2,9.37-3.83,12.73-3.3l-.46-.45a.38.38,0,0,0-.13-.09,12.16,12.16,0,0,0-2.68-2A14.17,14.17,0,0,0,60.54.81c-5.3-1.41-11.47.29-16.9,4.38-1.21,1.1-2.41,2.2-3.58,3.34-.49.46-1,.94-1.45,1.42-1.14,1.14-2.27,2.31-3.39,3.49A129.4,129.4,0,0,0,1.73,80.72c-.17,1.1-.35,2.2-.5,3.3C.83,86.8.54,89.6.34,92.43v.74c-.06,1-.11,2-.16,3C.18,97,.11,97.8.1,98.62h0v5.85C.24,103.51.32,102.51.46,101.49Z" transform="translate(-0.1 0.02)"/><path class="cls-2" d="M68.16,62.61a.32.32,0,0,0,.17-.09C70,61.64,71.88,60.77,73.8,60c-.5-3.12-2-10.43-3-14v-.09c-.2-.64-.37-1.16-.52-1.51a23.42,23.42,0,0,0-1.75-3.81,6.22,6.22,0,0,0-.32-.56v-.06a18.92,18.92,0,0,0-3.49-4.23l-.12-.07h0a10.89,10.89,0,0,0-4.36-2.38,17.26,17.26,0,0,1,3.56,3.63.06.06,0,0,1,0,.06,4.63,4.63,0,0,1,.43.56,26.61,26.61,0,0,1,2.44,3.85c.21.36.48.89.78,1.54a.14.14,0,0,0,0,.09,83.44,83.44,0,0,1,5.48,14.42h0A196.32,196.32,0,0,0,48.3,74.65c-2,1.71-4.15,3.55-6.41,5.6L35,86.81q3.81-3.27,7.21-6c2.37-1.92,4.59-3.65,6.68-5.24q4.83-3.66,8.66-6.29C62.1,66.15,65.6,64,68.16,62.61Z" transform="translate(-0.1 0.02)"/><path class="cls-3" d="M45.81,37.81a21.37,21.37,0,0,0-2,1.92h0l-.44.46c3.82-3.64,7.17-5.69,10.09-6.65A19.69,19.69,0,0,0,45.81,37.81Z" transform="translate(-0.1 0.02)"/><path class="cls-3" d="M12.24,92.55h0q.62-3.12,1.53-6.16a1.21,1.21,0,0,1-.16.42,37.82,37.82,0,0,0-1.87,8,12.37,12.37,0,0,0,0,2.72,5.31,5.31,0,0,0,2,3.16c2.13.88,5.54-.58,8.58-2.58h0L30,91.39l1-.85,1.69-1.73c-1.68,1.46-3.4,3-5.19,4.6C8.86,110.21,12.11,93.33,12.24,92.55Z" transform="translate(-0.1 0.02)"/><path class="cls-3" d="M89.08,61.81H90.5a19.71,19.71,0,0,0-6.5.24A30.77,30.77,0,0,1,89.08,61.81Z" transform="translate(-0.1 0.02)"/><path class="cls-2" d="M32.72,88.81,31,90.45,33,88.81l2.06-2Z" transform="translate(-0.1 0.02)"/><path class="cls-3" d="M32.72,88.81,31,90.45,33,88.81l2.06-2Z" transform="translate(-0.1 0.02)"/><path class="cls-2" d="M73.8,60c-1.92.8-3.76,1.67-5.47,2.55a.32.32,0,0,1-.17.09C65.6,64,62.1,66.15,57.59,69.23q-3.84,2.64-8.66,6.29a193.13,193.13,0,0,1,25-15.6h0a77.23,77.23,0,0,0-3.14-14C71.85,49.54,73.3,56.81,73.8,60Z" transform="translate(-0.1 0.02)"/><path class="cls-3" d="M73.8,60c-1.92.8-3.76,1.67-5.47,2.55a.32.32,0,0,1-.17.09C65.6,64,62.1,66.15,57.59,69.23q-3.84,2.64-8.66,6.29a193.13,193.13,0,0,1,25-15.6h0a77.23,77.23,0,0,0-3.14-14C71.85,49.54,73.3,56.81,73.8,60Z" transform="translate(-0.1 0.02)"/><path class="cls-2" d="M33,88.81l9.27-8Q38.83,83.59,35,86.87Z" transform="translate(-0.1 0.02)"/><path class="cls-3" d="M33,88.81l9.27-8Q38.83,83.59,35,86.87Z" transform="translate(-0.1 0.02)"/><path class="cls-2" d="M48.66,12.22q.73-.65,1.5-1.26c1.15-1,2.33-1.86,3.52-2.77a59.15,59.15,0,0,0-8.58,7.13C46.24,14.27,47.46,13.22,48.66,12.22Z" transform="translate(-0.1 0.02)"/><path class="cls-3" d="M48.66,12.22q.73-.65,1.5-1.26c1.15-1,2.33-1.86,3.52-2.77a59.15,59.15,0,0,0-8.58,7.13C46.24,14.27,47.46,13.22,48.66,12.22Z" transform="translate(-0.1 0.02)"/><path class="cls-2" d="M88.68,56.81a8.34,8.34,0,0,1,1,0c-.36-.06-.74-.09-1.13-.13a29.07,29.07,0,0,0-5.59.51v.13A55,55,0,0,1,88.68,56.81Z" transform="translate(-0.1 0.02)"/><path class="cls-3" d="M88.68,56.81a8.34,8.34,0,0,1,1,0c-.36-.06-.74-.09-1.13-.13a29.07,29.07,0,0,0-5.59.51v.13A55,55,0,0,1,88.68,56.81Z" transform="translate(-0.1 0.02)"/><path class="cls-2" d="M68.15,39.91a12,12,0,0,0-3.49-4.23A18.92,18.92,0,0,1,68.15,39.91Z" transform="translate(-0.1 0.02)"/><path class="cls-3" d="M68.15,39.91a12,12,0,0,0-3.49-4.23A18.92,18.92,0,0,1,68.15,39.91Z" transform="translate(-0.1 0.02)"/><path class="cls-3" d="M110.15,74.6a33,33,0,0,0-2.52-5.43,21.67,21.67,0,0,0-1.32-2c-5-5.81-10.35-8.06-15.18-8.48h-.06a13.13,13.13,0,0,0-1.52.06h0a31.76,31.76,0,0,0-5.42.49H84c-.64.11-1,.22-1.15.23h0L83,60h0c.1.7.21,1.41.32,2.12l.65-.09h.12a19.72,19.72,0,0,1,6.5-.24h0c4.42.59,9.08,2.89,13,8.44.34.61.67,1.26,1,1.94a28.53,28.53,0,0,1,1.68,5.08C108.54,87.74,104,99.9,99,103a8.31,8.31,0,0,0,7-.61C110.87,99,114.08,85.81,110.15,74.6Z" transform="translate(-0.1 0.02)"/><path class="cls-3" d="M82.65,96.81h0c-3.34-14.58-5.76-24.44-7.52-31.08a.09.09,0,0,1,0-.07l-.47-1.89v-.05H74.6c-.23.14-.72.44-1.43.9H73.1c-.44.27-.9.55-1.34.85h0a86.21,86.21,0,0,0-10.87,8.45c-1.25,1.08-2.49,2.2-3.67,3.36q-3.45,3.09-6.74,6.31l-.3.3c2.19-1.9,4.4-3.74,6.64-5.55,1.25-1.07,2.54-2.11,3.84-3.12a90.46,90.46,0,0,1,11.14-7.7h0c.45-.27.91-.53,1.35-.76h.07c.72-.42,1.21-.69,1.44-.81h0v0l.18,1.81v.07c.78,6.35,1.78,15.77,3,29.66h0c2.22,14.45,7.58,22,16.36,21.1a12.61,12.61,0,0,0,2.35-.5C90.62,115.57,86,108.2,82.65,96.81Z" transform="translate(-0.1 0.02)"/><path class="cls-3" d="M71.17,10.48c6.27,11.69,9,32.19,10.78,41.92h0c.11.56.22,1.13.31,1.68l.55-.12c-.35-9.75-.51-27.76-4.54-38.63A19.31,19.31,0,0,0,74.74,9a.47.47,0,0,0-.1-.1,11,11,0,0,0-2.19-2.06,12,12,0,0,0-2.63-1.45,12.41,12.41,0,0,0-2.94-.73A22.63,22.63,0,0,1,71.17,10.48Z" transform="translate(-0.1 0.02)"/><path class="cls-3" d="M11.37,93a14.94,14.94,0,0,0,.4,4.42,12.37,12.37,0,0,1,0-2.72,37.82,37.82,0,0,1,1.87-8c.06-.14.11-.28.16-.42C20.88,62.94,41.58,42,41.58,42c.61-.63,1.19-1.22,1.79-1.77l.44-.46h0a21.37,21.37,0,0,1,2-1.92,19.77,19.77,0,0,1,7.65-4.25h0a12,12,0,0,1,4.8-.65,11,11,0,0,1,1.7.29c-.2-.15-.39-.31-.6-.45a.27.27,0,0,0-.14-.07h-.06a12.7,12.7,0,0,0-7.07-2.3,13.51,13.51,0,0,0-5.1,1h0c-3,1.2-6.33,3.53-9.91,7.51-.56.6-1.11,1.24-1.68,1.91,0,0-19.19,22.38-23.31,46A53.57,53.57,0,0,0,11.42,93Z" transform="translate(-0.1 0.02)"/><path class="cls-3" d="M22.35,98h0c-3,2-6.45,3.46-8.58,2.58C16,102,20.11,101.16,28,93.5,29,92.44,30,91.43,31.06,90.44l-1,.85Z" transform="translate(-0.1 0.02)"/><path class="cls-2" d="M47,31.39a19.77,19.77,0,0,0-7.63,4.89,18.61,18.61,0,0,0-1.86,2.1h0a6.4,6.4,0,0,0-.41.5C40.66,34.92,44,32.59,47,31.39Z" transform="translate(-0.1 0.02)"/><path class="cls-3" d="M47,31.39a19.77,19.77,0,0,0-7.63,4.89,18.61,18.61,0,0,0-1.86,2.1h0a6.4,6.4,0,0,0-.41.5C40.66,34.92,44,32.59,47,31.39Z" transform="translate(-0.1 0.02)"/><path class="cls-2" d="M82.29,54.24l.53-.1a.43.43,0,0,1,0-.16l-.55.12A.68.68,0,0,1,82.29,54.24Z" transform="translate(-0.1 0.02)"/><path class="cls-3" d="M82.29,54.24l.53-.1a.43.43,0,0,1,0-.16l-.55.12A.68.68,0,0,1,82.29,54.24Z" transform="translate(-0.1 0.02)"/><path class="cls-2" d="M27.93,93.51c-7.84,7.66-12,8.53-14.18,7.1a3.64,3.64,0,0,1-2-3.16,14.94,14.94,0,0,1-.4-4.42h0a54.12,54.12,0,0,1,.74-6.22l-.1.43a32.61,32.61,0,0,0-.82,8c.38,8.59,6.82,6.55,11.85,3.06h0l7.29-7L33,88.81,31,90.45C30,91.44,29,92.45,27.93,93.51Z" transform="translate(-0.1 0.02)"/><path class="cls-3" d="M27.93,93.51c-7.84,7.66-12,8.53-14.18,7.1a3.64,3.64,0,0,1-2-3.16,14.94,14.94,0,0,1-.4-4.42h0a54.12,54.12,0,0,1,.74-6.22l-.1.43a32.61,32.61,0,0,0-.82,8c.38,8.59,6.82,6.55,11.85,3.06h0l7.29-7L33,88.81,31,90.45C30,91.44,29,92.45,27.93,93.51Z" transform="translate(-0.1 0.02)"/><path class="cls-2" d="M60.24,33.26a7.11,7.11,0,0,0-.83-.51c.21.14.4.3.6.45Z" transform="translate(-0.1 0.02)"/><path class="cls-3" d="M60.24,33.26a7.11,7.11,0,0,0-.83-.51c.21.14.4.3.6.45Z" transform="translate(-0.1 0.02)"/><path class="cls-2" d="M89.55,58.7c.53,0,1-.06,1.52-.06a21.15,21.15,0,0,0-7,.55,31.76,31.76,0,0,1,5.42-.49Z" transform="translate(-0.1 0.02)"/><path class="cls-3" d="M89.55,58.7c.53,0,1-.06,1.52-.06a21.15,21.15,0,0,0-7,.55,31.76,31.76,0,0,1,5.42-.49Z" transform="translate(-0.1 0.02)"/><path class="cls-2" d="M104,112.81l.13-.15c5.83-7.4,8.24-19.89,8.15-27.7-.07-5.6-1.23-12.89-5.4-18.65-.34-.46-.68-.89-1-1.32-.2-.24-.4-.46-.6-.68a6.1,6.1,0,0,0-.88-.88,7.22,7.22,0,0,0-.75-.71c-.29-.27-.57-.53-.87-.76l-.65-.5c-.28-.22-.57-.42-.86-.61s-.56-.38-.85-.55l-.23-.14a24.56,24.56,0,0,0-4.4-2h0a30.53,30.53,0,0,0-6-1.35.67.67,0,0,0-.2,0,8.34,8.34,0,0,0-1,0,52.22,52.22,0,0,0-5.72.55v-.13a12.39,12.39,0,0,0-.07-1.6h0V54.2l-.53.1v-.14c-.09-.55-.2-1.12-.31-1.68h0c-1.77-9.73-4.51-30.23-10.78-41.92a22.63,22.63,0,0,0-4.37-5.95c-4-.54-8.43.62-12.72,3.26l-.48.32C52.49,9.1,51.31,10,50.16,11q-.77.61-1.5,1.26c-1.2,1-2.39,2-3.56,3.1A142.24,142.24,0,0,0,5.1,79.9q-.48,1.65-.93,3.3-1.14,4.18-2,8.46l-.11.53v.22c-.2,1-.39,2-.58,3-.14.82-.29,1.64-.42,2.47h0c-.2,1.18-.37,2.36-.53,3.55-.14,1-.26,2-.39,3v.8c.64,6.06,2.61,10,5.55,11.88a1.07,1.07,0,0,0,.28.19,7.89,7.89,0,0,0,1.61.69A13,13,0,0,0,12.84,117l.38-.16a21.54,21.54,0,0,0,2-1.06.14.14,0,0,1,0,.09,44.72,44.72,0,0,0,7.91-5.46,83,83,0,0,0,7.09-6.69l1.24-1.33,1.13-1.23a211.78,211.78,0,0,1,17.1-16.8l.43-.36.3-.3q3.3-3.22,6.74-6.31c1.18-1.16,2.42-2.28,3.67-3.36a86.21,86.21,0,0,1,10.87-8.45h0c.44-.3.9-.58,1.34-.85h.07c.71-.46,1.2-.76,1.43-.9h.06v.05l.47,1.89a.09.09,0,0,0,0,.07c1.76,6.64,4.18,16.5,7.52,31.08h0c3.32,11.39,8,18.76,14,21.36A15.53,15.53,0,0,0,104,112.81ZM73.92,59.92a193.13,193.13,0,0,0-25,15.6c-2.08,1.59-4.3,3.29-6.68,5.29l-9.28,8-2.64,2.52-7.29,7h0c-5,3.49-11.47,5.53-11.85-3.06a32.61,32.61,0,0,1,.82-8l.1-.43c4.14-23.65,23.3-46,23.3-46,.57-.67,1.12-1.31,1.68-1.91a6.4,6.4,0,0,1,.41-.5h0a18.61,18.61,0,0,1,1.86-2.1A19.77,19.77,0,0,1,47,31.41h0a13.51,13.51,0,0,1,5.1-1,12.71,12.71,0,0,1,7.16,2.23h.06a.27.27,0,0,1,.14.07,7.11,7.11,0,0,1,.83.51,11,11,0,0,1,4.25,2.31h0l.12.07a12,12,0,0,1,3.49,4.23v.06a6.22,6.22,0,0,1,.32.56,24,24,0,0,1,1.79,3.89c.15.35.32.87.52,1.51v.09a77.23,77.23,0,0,1,3.14,14Zm25,43.09h0c-2,1.25-8.81,2.87-12.15-5.73-.09-.23-.19-.48-.27-.73a15.36,15.36,0,0,1-.44-1.61v-.23a43.42,43.42,0,0,1-1-6v-.07a197.73,197.73,0,0,1-2.24-25.83h0v-.53h0l.44-.08c-.11-.71-.22-1.42-.32-2.12h0l-.11-.57h0c.11,0,.51-.12,1.15-.23h.12a21.15,21.15,0,0,1,7-.55h.06c4.83.42,10.17,2.67,15.18,8.48.45.64.89,1.33,1.32,2a33,33,0,0,1,2.52,5.43c3.93,11.23.72,24.44-4.21,27.8a8.33,8.33,0,0,1-7,.57Z" transform="translate(-0.1 0.02)"/><path class="cls-4" d="M104,112.81l.13-.15c5.83-7.4,8.24-19.89,8.15-27.7-.07-5.6-1.23-12.89-5.4-18.65-.34-.46-.68-.89-1-1.32-.2-.24-.4-.46-.6-.68a6.1,6.1,0,0,0-.88-.88,7.22,7.22,0,0,0-.75-.71c-.29-.27-.57-.53-.87-.76l-.65-.5c-.28-.22-.57-.42-.86-.61s-.56-.38-.85-.55l-.23-.14a24.56,24.56,0,0,0-4.4-2h0a30.53,30.53,0,0,0-6-1.35.67.67,0,0,0-.2,0,8.34,8.34,0,0,0-1,0,52.22,52.22,0,0,0-5.72.55v-.13a12.39,12.39,0,0,0-.07-1.6h0V54.2l-.53.1v-.14c-.09-.55-.2-1.12-.31-1.68h0c-1.77-9.73-4.51-30.23-10.78-41.92a22.63,22.63,0,0,0-4.37-5.95c-4-.54-8.43.62-12.72,3.26l-.48.32C52.49,9.1,51.31,10,50.16,11q-.77.61-1.5,1.26c-1.2,1-2.39,2-3.56,3.1A142.24,142.24,0,0,0,5.1,79.9q-.48,1.65-.93,3.3-1.14,4.18-2,8.46l-.11.53v.22c-.2,1-.39,2-.58,3-.14.82-.29,1.64-.42,2.47h0c-.2,1.18-.37,2.36-.53,3.55-.14,1-.26,2-.39,3v.8c.64,6.06,2.61,10,5.55,11.88a1.07,1.07,0,0,0,.28.19,7.89,7.89,0,0,0,1.61.69A13,13,0,0,0,12.84,117l.38-.16a21.54,21.54,0,0,0,2-1.06.14.14,0,0,1,0,.09,44.72,44.72,0,0,0,7.91-5.46,83,83,0,0,0,7.09-6.69l1.24-1.33,1.13-1.23a211.78,211.78,0,0,1,17.1-16.8l.43-.36.3-.3q3.3-3.22,6.74-6.31c1.18-1.16,2.42-2.28,3.67-3.36a86.21,86.21,0,0,1,10.87-8.45h0c.44-.3.9-.58,1.34-.85h.07c.71-.46,1.2-.76,1.43-.9h.06v.05l.47,1.89a.09.09,0,0,0,0,.07c1.76,6.64,4.18,16.5,7.52,31.08h0c3.32,11.39,8,18.76,14,21.36A15.53,15.53,0,0,0,104,112.81ZM73.92,59.92a193.13,193.13,0,0,0-25,15.6c-2.08,1.59-4.3,3.29-6.68,5.29l-9.28,8-2.64,2.52-7.29,7h0c-5,3.49-11.47,5.53-11.85-3.06a32.61,32.61,0,0,1,.82-8l.1-.43c4.14-23.65,23.3-46,23.3-46,.57-.67,1.12-1.31,1.68-1.91a6.4,6.4,0,0,1,.41-.5h0a18.61,18.61,0,0,1,1.86-2.1A19.77,19.77,0,0,1,47,31.41h0a13.51,13.51,0,0,1,5.1-1,12.71,12.71,0,0,1,7.16,2.23h.06a.27.27,0,0,1,.14.07,7.11,7.11,0,0,1,.83.51,11,11,0,0,1,4.25,2.31h0l.12.07a12,12,0,0,1,3.49,4.23v.06a6.22,6.22,0,0,1,.32.56,24,24,0,0,1,1.79,3.89c.15.35.32.87.52,1.51v.09a77.23,77.23,0,0,1,3.14,14Zm25,43.09h0c-2,1.25-8.81,2.87-12.15-5.73-.09-.23-.19-.48-.27-.73a15.36,15.36,0,0,1-.44-1.61v-.23a43.42,43.42,0,0,1-1-6v-.07a197.73,197.73,0,0,1-2.24-25.83h0v-.53h0l.44-.08c-.11-.71-.22-1.42-.32-2.12h0l-.11-.57h0c.11,0,.51-.12,1.15-.23h.12a21.15,21.15,0,0,1,7-.55h.06c4.83.42,10.17,2.67,15.18,8.48.45.64.89,1.33,1.32,2a33,33,0,0,1,2.52,5.43c3.93,11.23.72,24.44-4.21,27.8a8.33,8.33,0,0,1-7,.57Z" transform="translate(-0.1 0.02)"/></svg>