<svg id="Camada_1" data-name="Camada 1" xmlns="http://www.w3.org/2000/svg" viewBox="0 0 599 600.09"><defs><style>.cls-1{fill:#00b6d3;}.cls-2{fill:#006681;}.cls-3{fill:#fff;}.cls-4{fill:#00aad3;}.cls-5{fill:#00a8c4;}</style></defs><path class="cls-1" d="M599.5,299.45a299.18,299.18,0,0,1-91.69,215.66c-1.78,1.73-3.6,3.43-5.43,5.11q-1.92,1.77-3.86,3.48l-1.74,1.53-.94.82q-2.26,2-4.58,3.87c-.44.38-.89.75-1.35,1.13-.91.74-1.81,1.48-2.73,2.21l-2,1.56-2,1.54c-.38.29-.75.59-1.14.87s-.75.59-1.14.88l-1.65,1.24q-3,2.28-6.14,4.48c-.68.49-1.37,1-2.05,1.44s-1.38,1-2.07,1.43-1.38.94-2.08,1.41l-2.18,1.46L462.61,551l-1,.63-1,.61c-2.43,1.55-4.89,3.07-7.38,4.54l-2,1.2L449,559.33l-1.19.69c-2.27,1.29-4.57,2.56-6.88,3.79l-1.73.92-.26.13L436.78,566l-.13.07c-.91.48-1.83.94-2.75,1.4q-3.42,1.71-6.9,3.35c-1.86.87-3.74,1.72-5.62,2.56a296.69,296.69,0,0,1-70.14,21.25q-10.62,1.84-21.5,2.92h0Q315.06,598.94,300,599q-12,0-23.73-.93A299.2,299.2,0,0,1,.5,299.45C.5,134.05,134.59,0,300,0S599.5,134.05,599.5,299.45Z" transform="translate(-0.5 0.05)"/><path class="cls-2" d="M234.69,212.25a12.27,12.27,0,0,0-2.51,1.26,13.29,13.29,0,0,1,1.82-1.85C234.31,211.42,234.53,211.65,234.69,212.25Z" transform="translate(-0.5 0.05)"/><path class="cls-2" d="M294.49,167.76l-.17.25C294.36,167.74,294.42,167.65,294.49,167.76Z" transform="translate(-0.5 0.05)"/><path class="cls-3" d="M390.28,122.32c0,1.64-30.08,4.25-37.27,6.54s-12.09,6.53-20.27,6.54c-.43,0-.85,0-1.25-.05-8.95-.64-11-8.31-15.68-11.24a7.26,7.26,0,0,0-1.71-.81c-6.21-2-22.29,5.89-22.29,5.89V87s15.43-10.78,28.5-9.8a16.72,16.72,0,0,1,3.2.52c9.86,2.6,10,13.14,14.46,15.82l.35.2c5.13,2.86,12.58,2.08,20.57,1.44,8.17-.66,25.5-8.5,27.14-6.87s-18.31,20.93-18.31,22.23S390.28,120.69,390.28,122.32Z" transform="translate(-0.5 0.05)"/><path class="cls-3" d="M294.49,66.09V184a3.27,3.27,0,0,1-5.36,2.51,3.28,3.28,0,0,0,2.09-2.74V62.82A3.28,3.28,0,0,1,294.49,66.09Z" transform="translate(-0.5 0.05)"/><path class="cls-4" d="M291.22,62.82V183.74a3.28,3.28,0,0,1-2.09,2.74A3.26,3.26,0,0,1,288,184V66.09A3.27,3.27,0,0,1,291.22,62.82Z" transform="translate(-0.5 0.05)"/><path class="cls-5" d="M171.13,571.09A301.61,301.61,0,0,1,19.06,406.59c11-12.69,34.11-38.92,38.08-38.42,5.23.65,15.7,36.61,20.27,44.46s25.5,9.81,31.39,19,7.19,47.08,17,58.19,21.57,10.46,23.54,13.08,5.23,25.5,7.84,31.38C159.11,538.58,167.07,560.08,171.13,571.09Z" transform="translate(-0.5 0.05)"/><path class="cls-3" d="M276.18,599.11a298.62,298.62,0,0,1-105-28c-4.06-11-12-32.51-13.95-36.85-2.61-5.88-5.88-28.77-7.84-31.38s-13.74-2-23.54-13.08-11.12-49-17-58.19-26.81-11.12-31.39-19-15-43.81-20.27-44.46c5.57-1,26.16,11.42,39.63,16.77a49.63,49.63,0,0,0,5,1.75c12.65,3.49,37.92,1.75,45.34,6.54,5.27,3.42-4.36,20.49,0,29.21s41.84,28.33,47.07,34.43,2.62,26.59,7,34.44,25.29,12.2,29.21,20.49.44,28.33,5.23,35.3C239.29,552.41,264.38,584.2,276.18,599.11Z" transform="translate(-0.5 0.05)"/><path class="cls-5" d="M351.43,595.65q-10.67,1.86-21.58,2.93h0Q315.11,600,300,600.05q-12,0-23.82-.94c-11.8-14.91-36.89-46.7-40.54-52-4.79-7-1.31-27-5.23-35.3s-24.84-12.65-29.21-20.49-1.73-28.34-7-34.44-42.72-25.72-47.07-34.43,5.27-25.79,0-29.21c-7.42-4.79-32.69-3.05-45.34-6.54a49.63,49.63,0,0,1-5-1.75c13.2-16.37,61.31-76.05,67-82.81,6.54-7.85,17.65-37.92,20.27-39.89s9.81,3.27,14.38,0c3.58-2.55,19.78-29.26,29.45-43l0,0c1.68-2.38,3.16-4.36,4.34-5.76a13.29,13.29,0,0,1,1.82-1.85c.31-.24.53,0,.69.59,1.42,5.53-2.84,42.6-1.66,46.73,1.3,4.57,28.11,22.23,28.11,24.84s-5.9,39.49-5.23,47.73c2,24.19,40.54,61.46,41.19,67.35S283.37,425.05,286,430.28s15.69,19.62,17,26.81-15,60.81-9.16,75.85C298.29,544.32,334.24,579.33,351.43,595.65Z" transform="translate(-0.5 0.05)"/><path class="cls-3" d="M427.47,571.75c-1.87.88-3.76,1.74-5.65,2.58a297.72,297.72,0,0,1-70.39,21.32c-17.19-16.32-53.14-51.33-57.6-62.71-5.88-15,10.47-68.66,9.16-75.85s-14.39-21.58-17-26.81,11.77-25.5,11.11-31.38-39.23-43.16-41.19-67.35c-.67-8.24,5.23-45.11,5.23-47.73S234.33,263.55,233,259c-1.18-4.13,3.08-41.2,1.66-46.73a19.93,19.93,0,0,1,9.45-.68l20.27,2.62.32.17c2.57,1.42,20.35,11.35,21.26,16.5,1,5.56-14.39,24.52-12.75,33.35s9.15,19.94,10.13,24.51-9.15,28.45-4.57,41.52,31.38,38.58,39.88,53.62,19.62,64.73,26.81,70.61,15.69,0,19.61,6.54,11.12,39.89,16.35,47.73C385.69,515.09,416.05,556.28,427.47,571.75Z" transform="translate(-0.5 0.05)"/><path class="cls-3" d="M508.57,515.9c-1.79,1.73-3.62,3.44-5.45,5.13q-1.94,1.77-3.88,3.49l-1.74,1.53c-.32.28-.63.56-.95.82-1.52,1.32-3.05,2.61-4.59,3.89-.45.38-.9.76-1.36,1.13-.91.74-1.82,1.49-2.74,2.22-.65.53-1.31,1-2,1.56s-1.32,1-2,1.55c-.37.3-.75.59-1.13.88l-1.15.88L480,540.22c-2,1.53-4.09,3-6.17,4.5l-2.06,1.45-2.07,1.43c-.69.48-1.39.95-2.09,1.42l-2.19,1.46-2.2,1.44-1,.62-1,.62q-3.66,2.34-7.4,4.56c-.67.4-1.34.81-2,1.2l-2.35,1.36-1.19.69c-2.28,1.3-4.59,2.56-6.91,3.8-.57.31-1.15.62-1.74.92l-.25.13c-.71.38-1.41.74-2.12,1.1l-.13.07c-.92.48-1.84,1-2.77,1.41L386,503.19l-23.22-59.83L289.26,306.05l2.94-81.4-10.59-38.18v-.05l-.19-.68s.77-.87,1.95-2.16a0,0,0,0,0,0,0c.24-.26.5-.55.78-.84,2.52-2.69,6.27-6.49,9-8.33a12.29,12.29,0,0,1,1.23-.73,2.78,2.78,0,0,1,1.4-.35c3.27.33,18.19,26.8,19.94,27.79,4.63,2.63,24.52-1,29.09,3.6s70,117,71.93,124.23,1,29.09,0,31.71-11.12,3.27-10.79,9.81,29.42,36,32.69,43.64,15.69,27.3,22.23,32.85,19.62,10.47,25.5,21.91C490.77,477.36,502.71,503.19,508.57,515.9Z" transform="translate(-0.5 0.05)"/><path class="cls-5" d="M437.15,567c-.92.48-1.84,1-2.77,1.41-2.28,1.14-4.59,2.26-6.91,3.35-11.42-15.47-41.78-56.66-46-63C376.22,500.9,369,467.55,365.1,461s-12.42-.65-19.61-6.54-18.31-55.57-26.81-70.61-35.31-40.54-39.88-53.62,5.55-36.94,4.57-41.52-8.5-15.69-10.13-24.51S287,236.42,286,230.86c-.91-5.15-18.69-15.08-21.26-16.5l16.87-29.24,2.55-2.39c2.52-2.69,6.27-6.49,9-8.33a12.29,12.29,0,0,1,1.23-.73C295,183.59,297,203,300,209.61c3.81,8.3,14.1,20.27,13.12,32.37S292.2,271.4,292.85,288.4s31.71,57.21,36.45,64.07,15.86,3.93,17.5,9.81-4.25,20.93-2.29,23.87,26.48,28.11,32.36,42.5,2.62,46.75,6.87,53.29S403,494.36,407,502.2s7.19,36.29,14.06,44.47C425.62,552.15,432.87,561.46,437.15,567Z" transform="translate(-0.5 0.05)"/><path class="cls-5" d="M535.27,486.56a301.65,301.65,0,0,1-26.7,29.34c-5.86-12.71-17.8-38.54-22.18-47-5.88-11.44-19-16.35-25.5-21.91s-19-25.17-22.23-32.85S406.3,377,406,370.46s9.81-7.2,10.79-9.81,2-24.52,0-31.71c-.84-3.08-13.26-25.38-27.57-50.26,16.41,1.44,69.39,6.31,71.05,9.06,2,3.27-4.58,60.16,0,68s38.25,24.52,40.54,30.08-2,20.6,2,30.08,21.9,27.46,23.54,33.67,2,20.51,5.23,29.1A56,56,0,0,0,535.27,486.56Z" transform="translate(-0.5 0.05)"/><path class="cls-3" d="M578.71,412.23a299.85,299.85,0,0,1-43.44,74.33,56,56,0,0,1-3.76-7.89c-3.21-8.59-3.6-22.89-5.23-29.1s-19.62-24.19-23.54-33.67.32-24.52-2-30.08-36-22.23-40.54-30.08,2-64.73,0-68c5.22,1.64,46.75,86,51.65,90.56s16,5.89,39.23,15.69A91.07,91.07,0,0,1,578.71,412.23Z" transform="translate(-0.5 0.05)"/></svg>