<svg id="Camada_1" data-name="Camada 1" xmlns="http://www.w3.org/2000/svg" viewBox="0 0 232.77 299.41"><defs><style>.cls-1{isolation:isolate;}.cls-2{fill:#aaa;}.cls-3{fill:#cdcdcd;}.cls-4{fill:#f7f8fb;}.cls-5{fill:#b3b3b3;}.cls-6{fill:#ff4b35;}.cls-7{fill:#b2c1cc;}.cls-8{fill:#f6f7fa;}.cls-9{fill:#ff3e28;}.cls-10{fill:#b71c08;}.cls-11{opacity:0.65;}.cls-12{fill:#fff;}</style></defs><g class="cls-1"><polygon class="cls-2" points="72.67 277.41 65.73 273.38 65.17 75.08 72.1 79.11 72.67 277.41"/><polygon class="cls-3" points="72.1 79.11 65.17 75.08 195.21 0 202.15 4.03 72.1 79.11"/><polygon class="cls-4" points="202.15 4.03 202.71 202.33 72.67 277.41 72.1 79.11 202.15 4.03"/></g><g class="cls-1"><polygon class="cls-2" points="87.42 287.25 80.49 283.22 79.93 84.92 86.86 88.95 87.42 287.25"/><polygon class="cls-3" points="86.86 88.95 79.93 84.92 209.97 9.84 216.91 13.87 86.86 88.95"/><polygon class="cls-4" points="216.91 13.87 217.47 212.17 87.42 287.25 86.86 88.95 216.91 13.87"/></g><g class="cls-1"><polygon class="cls-2" points="102.73 299.41 95.79 295.38 95.23 97.08 102.17 101.11 102.73 299.41"/><polygon class="cls-3" points="102.17 101.11 95.23 97.08 225.28 22 232.21 26.02 102.17 101.11"/><polygon class="cls-4" points="232.21 26.02 232.77 224.33 102.73 299.41 102.17 101.11 232.21 26.02"/></g><polygon class="cls-5" points="224.26 133.17 224.3 145.08 110.75 210.64 110.71 198.73 224.26 133.17"/><polygon class="cls-5" points="224.12 82.39 224.15 94.3 110.6 159.85 110.57 147.94 224.12 82.39"/><polygon class="cls-6" points="187.27 78.21 187.3 90.12 110.53 134.44 110.5 122.53 187.27 78.21"/><polygon class="cls-5" points="224.19 107.8 224.23 119.71 110.67 185.26 110.64 173.35 224.19 107.8"/><polygon class="cls-5" points="224.41 183.99 224.44 195.9 110.89 261.46 110.86 249.55 224.41 183.99"/><polygon class="cls-5" points="224.34 158.58 224.37 170.49 110.82 236.05 110.78 224.14 224.34 158.58"/><g class="cls-1"><polygon class="cls-7" points="72.02 184.19 59.78 177.07 74.11 152.25 86.36 159.36 72.02 184.19"/><path class="cls-8" d="M100.44,170.53a29.92,29.92,0,0,0,15.28,8.71l-14.33,24.82-15.28-8.7Z" transform="translate(-14.09 -11.17)"/><polygon class="cls-9" points="64.72 180.03 72.02 184.19 87.3 192.9 94.61 197.06 42.1 287.97 12.24 270.91 64.72 180.03"/><polygon class="cls-10" points="12.24 270.91 0 263.8 52.47 172.91 64.72 180.03 12.24 270.91"/><g class="cls-1"><path class="cls-10" d="M107.17,175.89l-12.24-7.12a29.58,29.58,0,0,1-6.73-5.36C71.55,145.7,73.76,106.55,94.89,70a144.05,144.05,0,0,1,13.38-19.41l12.24,7.11a145.28,145.28,0,0,0-13.37,19.41c-21.14,36.58-23.35,75.73-6.7,93.44a29.85,29.85,0,0,0,6.73,5.36Z" transform="translate(-14.09 -11.17)"/><path class="cls-10" d="M120.51,57.68l-12.24-7.11c9.16-11.2,19.39-20.06,29.62-26a63.56,63.56,0,0,1,18.58-7.4l12.24,7.11a63.94,63.94,0,0,0-18.58,7.4c-10.23,5.91-20.45,14.76-29.62,26Z" transform="translate(-14.09 -11.17)"/><path class="cls-10" d="M168.71,24.32l-12.24-7.11c9-1.88,17.4-1,24.53,3.06l12.24,7.11c-7.13-4.07-15.57-4.94-24.53-3.06Z" transform="translate(-14.09 -11.17)"/></g><path class="cls-9" d="M193.24,27.38c23.85,13.6,24,57.9.28,98.94-11.85,20.54-27.41,36.38-43,45.37-12.18,7-24.37,9.89-34.81,7.55a29.92,29.92,0,0,1-15.28-8.71c-16.65-17.71-14.44-56.86,6.7-93.44,11.84-20.54,27.41-36.37,43-45.37S181.31,20.57,193.24,27.38Zm-10,93.09c18.05-31.28,18-65-.22-75.41-9.09-5.18-21-3.52-32.85,3.33S126.44,67.31,117.41,83c-18,31.27-18,65,.22,75.4,9.08,5.18,21,3.53,32.85-3.33s23.74-18.92,32.77-34.55Z" transform="translate(-14.09 -11.17)"/><g class="cls-11"><path class="cls-12" d="M150.18,48.39c11.87-6.85,23.76-8.51,32.85-3.33,18.18,10.36,18.27,44.13.22,75.41-9,15.63-20.89,27.69-32.77,34.55s-23.77,8.51-32.85,3.33C99.45,148,99.36,114.22,117.41,83,126.44,67.31,138.3,55.25,150.18,48.39Z" transform="translate(-14.09 -11.17)"/></g></g></svg>