<svg id="Camada_1" data-name="Camada 1" xmlns="http://www.w3.org/2000/svg" viewBox="0 0 599 600.1"><defs><style>.cls-1{fill:#00c4a6;}.cls-2{fill:#fff;}.cls-3{fill:#00ad8a;}</style></defs><path class="cls-1" d="M599.5,299.45a298.39,298.39,0,0,1-65.08,186.43c-.82,1-1.66,2.06-2.49,3.08a299.89,299.89,0,0,1-24.12,26.15c-1.78,1.73-3.6,3.43-5.43,5.11q-1.92,1.75-3.86,3.48l-1.74,1.53c-.31.28-.63.55-.94.81q-2.26,2-4.58,3.88L489.92,531c-.92.75-1.82,1.49-2.74,2.22l-2,1.56c-.65.52-1.32,1-2,1.54-.38.29-.75.59-1.14.87s-.75.59-1.14.87c-.54.42-1.09.83-1.65,1.24q-3,2.29-6.14,4.48c-.68.49-1.37,1-2.05,1.45s-1.37,1-2.07,1.43-1.38.94-2.08,1.41l-2.18,1.46L462.61,551l-1,.62-1,.61q-3.65,2.34-7.38,4.56l-2,1.19c-.77.45-1.55.91-2.34,1.35-.4.24-.79.47-1.19.68q-3.42,1.95-6.88,3.8l-1.73.92-.26.13c-.7.37-1.4.73-2.11,1.08a.29.29,0,0,1-.13.08c-.91.48-1.83.94-2.75,1.4q-3.42,1.71-6.9,3.34c-1.86.88-3.73,1.73-5.62,2.57-.38.18-.77.34-1.15.51q-9.6,4.21-19.53,7.76a295.59,295.59,0,0,1-49.46,13q-10.64,1.86-21.5,2.92h0Q315.05,598.95,300,599q-12,0-23.73-.94a300.35,300.35,0,0,1-39.42-5.73q-13.95-3-27.41-7.27A298.94,298.94,0,0,1,110,531,299.48,299.48,0,1,1,566.8,163.24,298.17,298.17,0,0,1,599.5,299.45Z" transform="translate(-0.5 0.05)"/><path class="cls-2" d="M532.77,489.65a299,299,0,0,1-24.2,26.25q-2.69,2.6-5.45,5.13c-1.28,1.17-2.58,2.34-3.88,3.49-.57.52-1.16,1-1.74,1.53-.32.28-.63.56-.94.82-1.52,1.32-3.05,2.61-4.6,3.9l-1.35,1.12c-.92.75-1.82,1.49-2.75,2.22-.65.52-1.3,1-2,1.57l-2,1.55-1.15.87c-.37.3-.75.59-1.14.88L480,540.22c-2,1.53-4.09,3-6.17,4.49-.68.5-1.37,1-2.06,1.46s-1.37,1-2.07,1.43-1.39.95-2.09,1.42l-2.18,1.46-2.21,1.44-1,.62-1,.62q-3.66,2.34-7.41,4.57l-2,1.19c-.77.46-1.56.92-2.34,1.36l-1.2.69q-3.42,1.95-6.91,3.8c-.57.32-1.15.62-1.73.93l-.26.13-2.12,1.09a.57.57,0,0,1-.13.08l-2.76,1.4q-3.43,1.71-6.92,3.35c-1.87.89-3.75,1.74-5.64,2.58l-1.16.51q-2.42,1.06-4.84,2.07c-.79.34-1.58.66-2.38,1l-.25.1c-.74.31-1.5.61-2.25.91s-1.63.65-2.46,1l-2.46.95c-1.65.62-3.31,1.22-5,1.82a296.78,296.78,0,0,1-49.64,13q-10.68,1.86-21.58,2.93h0Q315.12,600,300,600.05q-12,0-23.82-.93a302.9,302.9,0,0,1-39.57-5.76q-14-3-27.5-7.3a300.08,300.08,0,0,1-99.77-54.21A302.38,302.38,0,0,1,58.17,478c13.1-9.61,37.17-28,53.46-44.74.35-.35.7-.73,1.08-1.11,23.65-23.95,101.81-92.5,128.44-101.52a19.9,19.9,0,0,1,3.74-.91c20-2.39,44.54-6.38,57.63-1.95a18.6,18.6,0,0,1,4.16,1.95c11.36,7.35,29,15.37,38.19,18.71s29.94,2,38.63,7.34,32.73,35.47,49.43,49.47S487,440.63,491,448C494,453.41,519.63,477.49,532.77,489.65Z" transform="translate(-0.5 0.05)"/><path class="cls-3" d="M420.67,574.84q-2.42,1.06-4.84,2.07c-.79.34-1.58.66-2.38,1l-.25.1c-.74.31-1.5.61-2.25.91s-1.63.65-2.46,1l-2.46.95c-1.65.62-3.31,1.22-5,1.82a296.78,296.78,0,0,1-49.64,13q-10.68,1.86-21.58,2.93h0Q315.12,600,300,600.05q-12,0-23.82-.93a302.9,302.9,0,0,1-39.57-5.76q-14-3-27.5-7.3a300.08,300.08,0,0,1-99.77-54.21A302.38,302.38,0,0,1,58.17,478c13.1-9.61,37.17-28,53.46-44.74.35-.35.7-.73,1.08-1.11,23.65-23.95,101.81-92.5,128.44-101.52a19.9,19.9,0,0,1,3.74-.91c20-2.39,44.54-6.38,57.63-1.95-.43,14.56-5.57,47.58-3.81,52,2.1,5.35,10,29.39,10,32.73s-5.34,17.37-3.34,26.05,14,.67,22.05,8.69,10.25,15.36,17.48,24.71,3.23,28.06,8.57,37.41,30.06,15.37,38.07,26.05,2,24,7.35,30.73C402.25,570.44,413.14,573.31,420.67,574.84Z" transform="translate(-0.5 0.05)"/><path class="cls-2" d="M337.8,145.39a95,95,0,0,1-21.2,36c-9.79,10.31-19.94,15.88-25.71,16-12.74.28-27-35.18-13.76-71.89s59.14-70.87,59.14-70.87.67,3.37,1.55,8.94C340.62,81.31,345.56,121.32,337.8,145.39Z" transform="translate(-0.5 0.05)"/><path class="cls-2" d="M429.68,174.69s-4.59,10.82-12.2,24.55c-12.27,22.12-32.4,51.79-53.9,55.9-36.41,7-54.47-13.91-55.86-25.11-.55-4.47,1.49-14.5,9.26-22.62a37.13,37.13,0,0,1,15.85-9.66c21-6.66,42.39-6.38,57.39-8.2C407.13,187.5,429.68,174.69,429.68,174.69Z" transform="translate(-0.5 0.05)"/><path class="cls-3" d="M290.3,340.41a2.76,2.76,0,0,1-2.62-1.9c-.64-1.9-15.51-47-15.52-84.91,0-22.7,10.49-56.9,10.94-58.34a2.76,2.76,0,1,1,5.28,1.63c-.1.35-10.69,34.85-10.69,56.71,0,37,15.08,82.71,15.24,83.17a2.77,2.77,0,0,1-1.75,3.49A2.71,2.71,0,0,1,290.3,340.41Z" transform="translate(-0.5 0.05)"/><path class="cls-3" d="M276.83,281.94h-.14a2.76,2.76,0,0,1-2.62-2.9c1-21.3,9.8-34.18,17-41.23,7.85-7.7,15.48-10.3,15.8-10.4a2.76,2.76,0,1,1,1.75,5.24h0A40.94,40.94,0,0,0,294.73,242c-9.3,9.23-14.39,21.8-15.14,37.35A2.76,2.76,0,0,1,276.83,281.94Z" transform="translate(-0.5 0.05)"/><path class="cls-3" d="M282.62,312.6a2.77,2.77,0,0,1-2.54-1.66c-14.88-33.87-33.37-49.41-33.56-49.57a2.76,2.76,0,1,1,3.52-4.26c.8.65,19.65,16.43,35.11,51.61a2.78,2.78,0,0,1-2.53,3.88Z" transform="translate(-0.5 0.05)"/><path class="cls-3" d="M299,131.13c.46,30.34,6.76,44.6,17.63,50.53-9.83,10.37-20,16-25.83,16.09C278,198,263.66,162.39,277,125.5s59.44-71.23,59.44-71.23.67,3.39,1.55,9C327.07,73.74,298.6,103.78,299,131.13Z" transform="translate(-0.5 0.05)"/><path class="cls-3" d="M417.48,199.24c-12.27,22.12-32.4,51.79-53.9,55.9-36.41,7-54.47-13.91-55.86-25.11-.55-4.47,1.49-14.5,9.26-22.62,2.47,8.92,10.2,21,33.79,22.62C376,231.73,402.49,212.42,417.48,199.24Z" transform="translate(-0.5 0.05)"/><path class="cls-2" d="M248.29,258.88l-.11.11c-4.74,5.07-39.31-3.78-51.05-29.1-12.84-27.7-9.55-70.44-6.52-93,1.24-9.31,2.44-15.19,2.44-15.19s37.64,49.74,47,63.3C251.22,201.26,262.93,243,248.29,258.88Z" transform="translate(-0.5 0.05)"/><path class="cls-3" d="M248.39,259.13l-.11.11c-4.76,5.09-39.45-3.79-51.24-29.21-12.89-27.8-9.58-70.7-6.55-93.38,3.91,20.32,11.56,55.74,20.39,73.4C219.53,227.36,238.24,248.37,248.39,259.13Z" transform="translate(-0.5 0.05)"/></svg>