<svg id="Camada_1" data-name="Camada 1" xmlns="http://www.w3.org/2000/svg" viewBox="0 0 599 600.1"><defs><style>.cls-1{fill:#00c9fa;}.cls-2{fill:#fff;}.cls-3{fill:#00a7cf;}</style></defs><path class="cls-1" d="M599.5,299.45a299,299,0,0,1-91.69,215.66c-1.78,1.73-3.6,3.43-5.43,5.11-1.27,1.17-2.57,2.33-3.86,3.48l-1.74,1.53-.94.82c-1.51,1.31-3,2.59-4.57,3.88L489.91,531c-.91.75-1.81,1.49-2.73,2.22l-2,1.56c-.65.52-1.32,1-2,1.54l-1.14.87c-.37.29-.75.59-1.14.87-.54.42-1.09.83-1.64,1.24-2,1.53-4.07,3-6.15,4.48-.68.5-1.37,1-2.05,1.45l-2.06,1.43L467,548.11l-2.18,1.46-2.2,1.43-1,.63-1,.6q-3.65,2.34-7.37,4.55l-2,1.2c-.77.45-1.55.91-2.34,1.35-.4.24-.79.46-1.19.68-2.27,1.3-4.57,2.56-6.88,3.8-.57.31-1.15.61-1.73.91l-.25.14L436.78,566a.47.47,0,0,1-.12.07c-.92.48-1.84.94-2.76,1.4q-3.42,1.71-6.89,3.34c-1.87.88-3.74,1.73-5.63,2.57q-10.14,4.5-20.68,8.27a295.73,295.73,0,0,1-49.45,13q-10.63,1.86-21.51,2.93h0Q315.05,598.94,300,599q-12,0-23.73-.94a298.69,298.69,0,0,1-39.42-5.74q-13.95-3-27.4-7.26A296.13,296.13,0,0,1,171.6,570.1,299.61,299.61,0,1,1,599.5,299.45Z" transform="translate(-0.5 0.05)"/><path class="cls-2" d="M401.06,582.63a297.38,297.38,0,0,1-49.63,13q-10.67,1.86-21.58,2.93h0Q315.12,600,300,600.05q-12,0-23.82-.94l-.91-.07a301.11,301.11,0,0,1-38.65-5.69q-14-3-27.5-7.28L219.57,457a9.27,9.27,0,0,1,9.25-8.52H383a9.27,9.27,0,0,1,9.25,8.62Z" transform="translate(-0.5 0.05)"/><polygon class="cls-2" points="373.08 457.2 236.05 457.2 236.51 453.13 257.02 272.38 353.32 272.38 373.08 457.2"/><rect class="cls-2" x="238.67" y="204.74" width="131.79" height="67.64" rx="9.12"/><path class="cls-2" d="M348.4,204.69H261.73L267,157.38a5.68,5.68,0,0,1,5.64-5h64.89a5.68,5.68,0,0,1,5.64,5Z" transform="translate(-0.5 0.05)"/><path class="cls-2" d="M338.79,116.26H271.34a1.68,1.68,0,0,1-1.32-2.71l33.05-42.16.67-.85a1.67,1.67,0,0,1,2.64,0l33.73,43A1.68,1.68,0,0,1,338.79,116.26Z" transform="translate(-0.5 0.05)"/><path class="cls-3" d="M294,299.5h21.09a4.85,4.85,0,0,1,4.85,4.85v41.92a1,1,0,0,1-1,1H290.15a1,1,0,0,1-1-1V304.35A4.85,4.85,0,0,1,294,299.5Z"/><path class="cls-3" d="M294,371.64h21.09a4.85,4.85,0,0,1,4.85,4.85v41.92a1,1,0,0,1-1,1H290.15a1,1,0,0,1-1-1V376.49a4.85,4.85,0,0,1,4.85-4.85Z"/><path class="cls-2" d="M567.78,162.74,305.06,138.37l212.8-46A301.48,301.48,0,0,1,567.78,162.74Z" transform="translate(-0.5 0.05)"/><path class="cls-2" d="M305.06,138.37,16.93,198.08A300.33,300.33,0,0,1,73.8,101.49Z" transform="translate(-0.5 0.05)"/><path class="cls-3" d="M278,116.26v36.07h54.1V116.26Zm11.8,31.85h-9V125a4.5,4.5,0,0,1,9,0Zm20.92,0H299.4v-22a5.67,5.67,0,1,1,11.33,0Zm18.6,0h-9V125a4.51,4.51,0,0,1,9,0Z" transform="translate(-0.5 0.05)"/><path class="cls-3" d="M275.27,448.43V599a301.11,301.11,0,0,1-38.65-5.69q-14-3-27.5-7.28L219.57,457a9.27,9.27,0,0,1,9.25-8.52Z" transform="translate(-0.5 0.05)"/><polygon class="cls-3" points="293.44 272.38 272.86 301.88 261.23 453.13 236.51 453.13 257.02 272.38 293.44 272.38"/><path class="cls-3" d="M265.38,204.69v67.64h-17.1a9.11,9.11,0,0,1-9.11-9.12V213.8a9.11,9.11,0,0,1,9.11-9.11Z" transform="translate(-0.5 0.05)"/><path class="cls-3" d="M285,152.33l-3.92,52.36H261.73L267,157.38a5.68,5.68,0,0,1,5.64-5Z" transform="translate(-0.5 0.05)"/><path class="cls-3" d="M303.07,71.39l-8.6,44.87H271.34a1.68,1.68,0,0,1-1.32-2.71Z" transform="translate(-0.5 0.05)"/></svg>